<?xml version="1.0" standalone="no"?>
<!DOCTYPE svg PUBLIC "-//W3C//DTD SVG 20010904//EN"
 "http://www.w3.org/TR/2001/REC-SVG-20010904/DTD/svg10.dtd">
<svg version="1.0" xmlns="http://www.w3.org/2000/svg"
 width="1045.000000pt" height="1045.000000pt" viewBox="0 0 1045.000000 1045.000000"
 preserveAspectRatio="xMidYMid meet">
<metadata>
Created by potrace 1.11, written by Peter Selinger 2001-2013
</metadata>
<g transform="translate(0.000000,1045.000000) scale(0.100000,-0.100000)"
fill="#000000" stroke="none">
<path d="M4281 10165 c-1 -6 -11 -12 -23 -12 -48 -3 -68 -8 -68 -17 0 -5 -3
-7 -6 -3 -3 3 -24 -1 -46 -9 -22 -7 -45 -11 -51 -7 -5 3 -7 1 -4 -4 4 -6 -6
-13 -22 -16 -16 -3 -36 -13 -45 -22 -9 -9 -16 -13 -16 -9 0 3 -7 1 -15 -6 -8
-7 -15 -10 -15 -7 0 3 -15 0 -34 -8 -18 -8 -36 -11 -40 -8 -3 4 -6 1 -6 -6 0
-8 -6 -11 -16 -7 -8 3 -13 2 -10 -3 5 -8 -20 -18 -63 -27 -8 -1 -17 -8 -21
-14 -4 -7 -11 -11 -16 -11 -18 1 -44 -11 -44 -20 0 -6 -4 -8 -8 -5 -5 3 -20
-1 -33 -8 -14 -7 -33 -12 -42 -10 -9 1 -17 -1 -17 -6 0 -4 -10 -10 -22 -14
-13 -3 -24 -6 -25 -6 -1 -1 -15 -7 -30 -15 -14 -8 -30 -12 -35 -9 -4 3 -8 1
-8 -5 0 -5 -13 -12 -30 -16 -16 -4 -30 -11 -30 -16 0 -5 -7 -9 -15 -9 -16 0
-58 -21 -120 -62 -35 -23 -51 -35 -102 -78 -7 -6 -13 -8 -13 -5 0 9 -134 -87
-176 -124 -18 -17 -36 -31 -39 -31 -4 0 -12 -6 -19 -12 -7 -7 -33 -29 -56 -48
-24 -19 -52 -44 -63 -55 -11 -11 -16 -13 -12 -5 4 8 -4 3 -19 -12 -15 -16 -31
-28 -36 -28 -6 0 -9 -5 -7 -12 1 -7 -2 -12 -8 -13 -21 -2 -103 -59 -174 -122
-20 -18 -40 -33 -44 -33 -5 0 -6 -4 -3 -8 2 -4 -7 -16 -22 -26 -15 -10 -38
-33 -52 -52 -14 -18 -29 -34 -33 -34 -10 0 -41 -30 -32 -30 3 0 -17 -22 -45
-50 -27 -27 -50 -54 -50 -60 0 -6 -4 -8 -10 -5 -5 3 -10 0 -10 -7 0 -7 -22
-34 -48 -59 -26 -26 -63 -66 -82 -90 -19 -23 -47 -55 -62 -71 -16 -16 -28 -34
-28 -40 0 -6 -3 -8 -7 -5 -6 7 -67 -53 -93 -93 -8 -12 -27 -35 -42 -50 -30
-30 -36 -45 -15 -35 6 4 1 -4 -13 -17 -24 -23 -32 -39 -33 -65 0 -6 -9 -10
-19 -8 -16 3 -17 1 -6 -18 10 -20 10 -21 -6 -8 -14 12 -16 12 -10 -4 5 -13 4
-16 -4 -11 -8 5 -10 1 -5 -10 4 -11 2 -15 -4 -11 -10 6 -42 -21 -35 -30 1 -1
2 -15 2 -30 0 -26 -1 -26 -14 -7 -13 17 -14 15 -6 -19 7 -32 6 -36 -6 -26 -11
9 -14 7 -14 -11 0 -16 -4 -20 -15 -16 -13 5 -14 2 -4 -17 11 -19 10 -20 -3 -9
-13 10 -15 9 -13 -13 3 -18 -4 -29 -23 -41 -15 -8 -18 -13 -8 -9 16 4 17 3 7
-9 -7 -8 -18 -14 -24 -12 -7 1 -9 1 -4 -1 11 -7 8 -31 -5 -39 -6 -4 -8 -3 -4
4 3 6 2 14 -4 17 -6 4 -10 3 -9 -2 1 -4 0 -12 -1 -18 -1 -5 -3 -14 -5 -20 -1
-5 -3 -20 -3 -32 -2 -25 -22 -32 -22 -9 0 8 -4 18 -10 21 -12 7 -2 -23 14 -44
8 -11 8 -13 -1 -7 -8 4 -13 1 -13 -8 0 -15 -12 -21 -35 -16 -5 1 -4 -4 3 -11
17 -18 15 -32 -4 -25 -15 6 -15 4 -3 -11 12 -14 12 -16 0 -8 -11 6 -13 3 -9
-13 4 -14 2 -19 -7 -16 -7 3 -15 -2 -19 -11 -3 -9 -2 -13 4 -10 17 10 11 -7
-7 -22 -12 -10 -13 -12 -3 -8 13 6 13 5 0 -7 -8 -7 -16 -24 -18 -37 -1 -13
-10 -30 -20 -38 -10 -9 -11 -11 -2 -7 12 7 13 5 3 -8 -7 -8 -10 -18 -6 -21 3
-4 -2 -7 -12 -7 -15 0 -16 -2 -4 -17 12 -14 12 -16 0 -8 -11 6 -13 3 -9 -13 4
-12 3 -20 -2 -17 -4 2 -16 -5 -26 -18 -15 -16 -15 -19 -2 -9 15 12 17 11 15
-6 0 -12 -6 -18 -14 -15 -9 4 -12 -4 -9 -26 2 -17 -1 -28 -6 -25 -5 3 -9 0 -7
-7 3 -29 -1 -40 -13 -33 -8 5 -7 0 2 -11 8 -10 10 -16 4 -12 -14 8 -22 -9 -19
-40 1 -13 -3 -19 -8 -16 -6 4 -8 0 -4 -10 4 -11 1 -17 -9 -17 -9 0 -12 5 -8
12 4 7 3 8 -5 4 -8 -5 -9 -12 -2 -20 12 -14 3 -56 -11 -56 -5 0 -6 6 -2 13 4
6 3 8 -1 4 -13 -11 -15 -37 -3 -37 5 0 2 -7 -6 -16 -9 -8 -13 -21 -9 -27 5 -9
3 -9 -8 0 -12 9 -14 5 -13 -28 0 -22 -4 -43 -9 -46 -6 -3 -7 -1 -3 5 4 7 3 12
-2 12 -6 0 -13 -7 -16 -16 -3 -9 -11 -12 -18 -8 -7 4 -5 -2 5 -13 16 -18 16
-21 2 -27 -9 -3 -13 -11 -9 -17 4 -7 3 -9 -3 -6 -6 4 -14 -1 -17 -10 -4 -9 -1
-20 6 -25 11 -6 10 -8 0 -8 -7 0 -11 -4 -7 -9 3 -5 0 -13 -6 -17 -7 -4 -9 -3
-5 4 3 6 1 14 -6 18 -7 4 -10 4 -6 -1 4 -4 2 -15 -5 -23 -8 -11 -8 -14 0 -9 6
4 14 3 18 -3 3 -5 -1 -10 -9 -10 -8 0 -18 -5 -22 -12 -4 -6 -3 -8 3 -5 6 4 13
-2 16 -14 5 -17 3 -18 -9 -8 -12 10 -13 9 -8 -6 6 -14 4 -16 -7 -10 -12 7 -12
6 -1 -7 15 -18 0 -34 -20 -22 -7 4 -3 -3 10 -15 22 -22 30 -37 13 -27 -4 3
-17 -2 -27 -10 -10 -9 -13 -13 -6 -9 13 7 12 -28 -1 -41 -12 -12 -8 -26 5 -18
7 4 8 3 4 -5 -4 -6 -12 -9 -17 -6 -5 4 -9 1 -9 -5 0 -6 -5 -8 -12 -4 -7 4 -8
3 -4 -5 4 -6 11 -9 15 -7 4 3 8 -1 8 -9 0 -8 -4 -12 -9 -9 -7 5 -11 -14 -11
-58 0 -10 -4 -15 -8 -12 -5 3 -7 9 -4 14 3 5 1 11 -4 15 -9 5 -9 -3 1 -45 1
-8 -2 -14 -8 -13 -6 1 -11 -4 -11 -12 0 -8 3 -12 7 -10 4 2 7 -3 7 -11 0 -9
-6 -13 -15 -9 -12 4 -13 3 -2 -10 10 -12 9 -15 -6 -15 -11 0 -15 -4 -9 -8 14
-10 17 -32 5 -32 -6 0 -10 5 -10 12 0 6 -3 9 -6 6 -3 -4 0 -16 6 -29 11 -19
10 -21 -4 -16 -9 4 -16 2 -16 -3 0 -6 5 -10 10 -10 6 0 10 -5 10 -11 0 -5 -4
-7 -10 -4 -5 3 -10 -3 -10 -14 0 -10 -6 -22 -12 -24 -10 -4 -10 -6 0 -6 6 -1
12 -6 12 -12 0 -6 -7 -8 -16 -5 -14 5 -15 4 -4 -9 8 -10 9 -15 2 -15 -7 0 -9
-7 -5 -17 5 -12 3 -14 -8 -8 -11 7 -11 5 1 -10 9 -11 10 -16 3 -11 -7 4 -13 2
-13 -3 0 -6 5 -11 10 -11 6 0 10 -5 10 -11 0 -6 -6 -9 -14 -6 -20 8 -28 -4
-14 -21 10 -11 9 -17 -5 -27 -9 -6 -14 -15 -10 -18 3 -4 2 -12 -4 -19 -5 -7
-9 -20 -8 -28 0 -8 -6 -20 -14 -26 -10 -8 -11 -15 -2 -31 9 -17 7 -23 -11 -35
-17 -11 -19 -16 -8 -23 9 -6 11 -4 5 5 -5 9 -4 11 3 6 15 -9 15 -11 -5 -27
-14 -12 -16 -12 -8 0 6 10 4 12 -4 6 -8 -4 -9 -11 -3 -17 10 -10 4 -56 -9 -64
-5 -3 -9 -11 -9 -17 0 -7 4 -6 10 3 7 12 9 10 7 -7 0 -12 -5 -19 -9 -17 -4 3
-8 -1 -8 -10 0 -8 6 -17 13 -19 9 -4 9 -6 0 -6 -7 -1 -17 -11 -24 -22 -9 -17
-8 -20 2 -14 9 6 10 3 4 -11 -5 -10 -10 -38 -13 -62 -3 -31 -8 -42 -18 -38
-14 5 -9 -18 8 -41 7 -8 3 -10 -11 -6 -13 3 -21 1 -21 -6 0 -7 4 -10 9 -6 5 3
13 1 16 -5 4 -6 3 -10 -2 -9 -22 4 -25 -2 -7 -16 18 -13 18 -14 -5 -8 -21 5
-22 4 -12 -14 5 -11 7 -24 3 -28 -4 -3 -7 -10 -7 -13 -1 -4 -6 -16 -12 -27 -6
-11 -11 -24 -11 -28 0 -5 -4 -12 -8 -15 -4 -4 -4 -1 1 7 5 9 4 12 -2 8 -6 -4
-9 -23 -7 -42 2 -23 -1 -33 -7 -29 -7 4 -7 -1 0 -14 8 -15 8 -23 -1 -28 -6 -4
-8 -3 -4 4 3 6 2 13 -3 16 -11 7 -9 -13 3 -33 7 -11 5 -13 -10 -7 -15 6 -16 5
-7 -5 9 -9 9 -17 2 -32 -8 -14 -8 -17 0 -13 7 5 9 1 5 -8 -3 -9 -10 -14 -14
-11 -5 3 -6 -5 -2 -17 4 -16 2 -19 -9 -13 -11 6 -12 5 -2 -5 10 -11 9 -16 -5
-27 -16 -12 -15 -12 3 -6 18 6 18 5 6 -10 -7 -9 -18 -14 -25 -10 -7 4 -7 1 1
-7 8 -9 9 -19 2 -32 -6 -12 -6 -18 1 -18 5 0 10 -5 10 -11 0 -5 -4 -8 -9 -5
-5 3 -14 -1 -20 -8 -10 -12 -8 -14 11 -9 18 4 20 3 8 -6 -13 -10 -13 -11 0
-11 9 0 11 -3 5 -8 -25 -18 -36 -40 -24 -48 7 -4 9 -3 5 4 -3 6 -2 13 4 17 5
3 10 -1 10 -10 0 -8 -7 -18 -16 -22 -11 -4 -12 -8 -4 -13 14 -9 21 -58 8 -66
-4 -3 -5 -10 -2 -16 4 -7 2 -8 -4 -4 -7 4 -12 1 -12 -9 0 -9 -5 -13 -11 -10
-6 4 -5 -2 2 -13 7 -12 16 -19 19 -17 4 2 7 -2 7 -10 0 -10 -5 -11 -19 -4 -12
6 -18 6 -18 -1 0 -5 4 -10 8 -10 5 0 9 -7 9 -15 0 -10 -6 -14 -16 -10 -14 4
-14 4 -1 -7 17 -14 20 -32 7 -45 -5 -4 -7 -2 -5 6 2 7 -4 16 -12 18 -12 4 -12
3 -2 -5 8 -5 14 -13 14 -17 0 -4 -6 -12 -14 -17 -9 -6 -5 -8 12 -4 14 3 19 3
12 0 -6 -3 -9 -11 -6 -16 4 -6 2 -8 -4 -4 -6 3 -13 2 -16 -3 -4 -5 2 -12 11
-14 17 -4 17 -5 1 -6 -13 -1 -17 -8 -14 -23 2 -13 -1 -28 -5 -34 -6 -7 -4 -16
5 -23 14 -12 11 -45 -3 -36 -4 2 -5 -9 -3 -25 3 -19 9 -27 16 -23 6 3 1 -5
-11 -19 -25 -27 -31 -47 -9 -29 11 9 16 9 22 0 5 -8 3 -9 -6 -4 -10 6 -12 4
-7 -8 4 -11 2 -14 -7 -11 -7 3 -18 -1 -24 -9 -9 -11 -8 -14 3 -14 8 0 11 5 8
10 -3 6 -1 7 6 3 9 -6 9 -11 0 -22 -6 -7 -16 -11 -22 -7 -6 3 -7 1 -3 -5 4 -6
12 -10 19 -8 7 1 9 1 4 -1 -4 -3 -5 -9 -2 -14 4 -5 -2 -6 -11 -2 -11 4 -15 3
-10 -5 3 -6 -2 -15 -11 -21 -10 -6 -13 -11 -8 -11 6 0 16 5 22 11 8 8 10 2 10
-19 -1 -17 -5 -28 -10 -25 -4 2 -4 9 -1 15 5 7 2 8 -5 4 -7 -5 -10 -15 -7 -23
4 -9 1 -23 -6 -31 -10 -12 -10 -14 -1 -8 9 4 13 1 13 -9 0 -12 -5 -15 -17 -10
-14 5 -15 3 -6 -6 6 -6 9 -18 6 -25 -3 -9 2 -14 13 -14 16 0 16 -2 4 -9 -8 -6
-17 -8 -21 -6 -9 6 -1 -52 11 -74 7 -14 5 -22 -7 -32 -14 -12 -16 -12 -8 1 6
12 6 13 -6 2 -12 -11 -12 -14 1 -22 8 -5 18 -6 22 -4 4 3 8 1 8 -5 0 -5 -12
-14 -27 -19 -21 -8 -23 -11 -9 -11 11 -1 16 -4 13 -8 -4 -3 -1 -13 5 -22 10
-13 10 -14 -2 -3 -20 17 -31 15 -23 -5 4 -9 2 -14 -3 -10 -6 3 -10 -6 -10 -20
0 -21 2 -22 12 -9 6 9 15 16 20 16 5 -1 -7 -15 -26 -32 -19 -17 -27 -28 -18
-25 9 3 22 -1 30 -11 11 -15 11 -15 -3 -4 -13 10 -19 9 -30 -5 -8 -9 -9 -14
-3 -10 7 4 14 0 18 -8 3 -8 0 -18 -6 -21 -7 -4 -14 -2 -16 4 -2 7 -8 12 -14
12 -6 0 -5 -6 2 -15 8 -9 10 -27 6 -46 -3 -16 -2 -28 2 -25 5 3 9 -1 9 -9 0
-8 -4 -12 -8 -9 -4 2 -10 0 -14 -6 -3 -5 -1 -10 4 -10 6 0 11 -5 11 -11 0 -5
-4 -8 -9 -4 -5 3 -13 1 -16 -5 -4 -6 -1 -9 6 -8 6 2 14 -3 16 -10 3 -8 -1 -10
-14 -6 -15 6 -16 4 -5 -7 18 -19 15 -34 -5 -18 -13 11 -13 8 3 -16 15 -22 16
-28 4 -23 -11 4 -15 -2 -16 -25 l-1 -30 14 24 c10 17 12 18 7 4 -4 -11 -7 -30
-7 -43 -1 -16 -5 -21 -16 -17 -9 3 -12 3 -9 -1 4 -4 2 -16 -4 -28 -10 -19 -9
-19 4 -8 13 11 18 11 24 0 4 -7 4 -10 -1 -6 -5 5 -15 -2 -23 -13 -12 -18 -13
-23 -1 -30 12 -7 12 -9 0 -9 -9 0 -12 -9 -9 -30 3 -17 1 -30 -3 -30 -4 0 -6
-8 -5 -17 2 -10 -2 -21 -8 -25 -7 -5 -7 -8 3 -8 11 0 11 -3 0 -16 -7 -9 -12
-29 -11 -44 2 -16 -1 -31 -7 -35 -6 -3 -11 -11 -11 -17 0 -6 7 -5 17 3 17 13
17 13 1 -12 -15 -24 -15 -27 0 -45 16 -17 16 -17 0 -5 -20 15 -25 2 -7 -16 8
-8 7 -13 -2 -18 -8 -6 -10 -4 -4 5 6 9 4 11 -4 5 -8 -4 -10 -17 -7 -31 4 -16
2 -24 -6 -24 -9 0 -8 -3 2 -10 12 -7 13 -13 3 -28 -8 -14 -8 -23 -1 -30 6 -6
7 -18 3 -29 -12 -28 -14 -44 -4 -37 5 3 10 -1 10 -8 1 -7 2 -20 3 -28 0 -8 -5
-20 -13 -26 -11 -9 -12 -12 -1 -19 8 -5 11 -4 7 2 -3 5 0 10 7 10 11 0 12 -4
3 -18 -6 -10 -16 -15 -22 -12 -5 4 -7 3 -3 -2 4 -4 2 -15 -5 -24 -10 -14 -10
-14 4 -3 14 10 18 10 23 -4 9 -24 7 -31 -5 -14 -9 12 -10 11 -6 -6 2 -12 0
-28 -5 -35 -8 -11 -8 -10 -4 4 3 10 2 16 -3 12 -11 -6 -8 -61 4 -72 4 -4 5 -2
0 6 -5 10 -4 12 4 7 16 -10 3 -29 -16 -22 -9 4 -11 2 -6 -7 12 -19 14 -96 3
-117 -8 -15 -6 -20 11 -25 16 -5 18 -9 8 -15 -10 -7 -10 -12 -1 -23 9 -11 9
-14 -3 -14 -8 0 -12 4 -9 9 3 4 0 8 -5 8 -14 0 -14 -17 -1 -25 6 -4 7 -12 3
-18 -14 -22 -11 -57 5 -57 13 0 12 -3 -4 -16 -16 -13 -16 -15 -2 -10 10 3 20
0 24 -6 4 -7 3 -8 -4 -4 -7 4 -12 2 -12 -4 0 -6 -4 -9 -8 -6 -4 2 -9 -5 -9
-17 -2 -17 0 -19 7 -7 7 11 10 3 10 -27 0 -24 4 -43 9 -43 11 0 9 -19 -3 -38
-4 -7 -5 -16 -2 -19 3 -4 6 -1 6 7 0 10 3 10 15 0 8 -7 12 -16 9 -21 -9 -15 6
-50 18 -43 6 4 8 3 5 -2 -3 -6 -2 -16 3 -24 5 -9 4 -20 -3 -29 -9 -11 -9 -13
0 -8 6 4 14 3 18 -3 3 -5 1 -10 -6 -10 -7 0 -1 -10 12 -21 l24 -21 -25 6 c-17
5 -21 4 -11 -2 8 -6 10 -15 6 -22 -5 -8 -4 -11 1 -7 6 3 16 2 24 -4 8 -5 10
-9 4 -9 -7 0 -9 -11 -6 -26 3 -20 7 -23 14 -12 7 9 8 7 5 -9 -4 -16 0 -23 10
-23 8 0 13 -7 11 -17 -2 -10 3 -24 12 -31 9 -8 9 -11 2 -7 -11 6 -12 3 -2 -14
6 -13 16 -19 23 -14 7 4 5 -2 -3 -12 -13 -17 -13 -18 1 -13 9 4 16 1 16 -8 0
-7 -5 -11 -11 -8 -6 3 -3 -1 6 -9 10 -8 15 -17 11 -20 -3 -4 2 -7 13 -7 14 0
16 -2 6 -9 -11 -7 -10 -9 3 -15 9 -3 13 -10 10 -16 -3 -5 -1 -10 4 -10 6 0 11
-9 11 -19 0 -11 5 -21 10 -23 6 -2 12 -13 13 -26 0 -12 5 -22 9 -22 4 0 7 -3
7 -7 -4 -22 2 -33 14 -27 8 6 8 3 -1 -9 -12 -14 -11 -16 8 -12 18 3 20 2 10
-10 -8 -10 -9 -15 -2 -15 6 0 14 -10 17 -21 4 -12 10 -17 14 -12 3 5 14 1 24
-9 11 -12 13 -18 5 -18 -7 -1 -2 -7 11 -14 18 -10 20 -15 10 -19 -8 -3 -4 -6
11 -7 23 -1 23 -2 5 -10 -17 -7 -17 -9 -2 -9 9 -1 17 -5 17 -11 0 -5 7 -10 15
-10 9 0 18 -7 21 -15 4 -8 11 -12 18 -8 6 4 5 -1 -3 -10 -8 -10 -11 -20 -7
-24 3 -3 6 0 6 8 0 11 2 11 10 -1 9 -13 10 -13 10 0 1 8 10 -2 21 -23 12 -23
33 -44 52 -52 18 -7 31 -17 30 -22 -2 -4 2 -8 7 -8 6 0 15 -7 21 -15 8 -12 9
-9 5 10 -3 14 -3 19 0 12 3 -6 10 -10 14 -7 5 3 12 0 16 -6 4 -8 3 -9 -4 -5
-7 4 -12 2 -12 -3 0 -6 9 -11 20 -11 11 0 20 -5 20 -11 0 -5 5 -7 12 -3 8 5 9
2 5 -10 -5 -13 -3 -17 7 -13 8 3 17 -1 20 -8 3 -9 12 -12 22 -8 14 5 15 3 5
-15 -10 -19 -9 -20 20 -12 26 8 29 7 19 -5 -10 -12 -10 -15 1 -15 11 0 11 -2
-1 -10 -8 -5 -10 -10 -5 -10 6 0 16 5 23 12 9 9 12 9 12 -1 0 -7 4 -9 10 -6 6
4 7 -1 3 -11 -5 -13 -3 -16 10 -11 11 4 20 -1 27 -16 10 -20 10 -21 -3 -4 -9
10 -17 15 -20 10 -3 -4 7 -17 21 -27 14 -11 22 -14 18 -8 -4 7 -2 12 3 12 6 0
11 -5 11 -12 0 -6 3 -8 7 -5 8 8 33 -12 33 -26 0 -6 -6 -3 -13 8 -11 14 -16
15 -22 5 -5 -8 -4 -11 2 -7 6 4 14 0 17 -8 8 -21 48 -35 63 -23 9 7 11 4 8
-10 -3 -15 1 -19 16 -15 21 6 25 -6 9 -25 -7 -8 -7 -9 1 -3 14 12 61 -8 52
-21 -3 -6 5 -5 17 2 26 14 38 6 21 -14 -10 -12 -9 -14 6 -11 10 1 27 -2 38 -7
19 -9 19 -9 1 6 -10 9 -23 13 -29 9 -6 -3 -7 -1 -3 5 8 13 39 1 53 -21 11 -17
49 -46 39 -29 -4 6 -2 12 3 12 6 0 11 -5 11 -11 0 -6 7 -8 16 -5 8 3 12 2 9
-3 -3 -5 -1 -12 5 -16 5 -3 10 0 10 7 0 10 3 9 9 -2 6 -8 7 -18 4 -24 -3 -5
-1 -6 5 -2 7 4 12 2 12 -5 0 -7 3 -10 6 -7 3 4 0 17 -7 30 -12 23 -12 23 9 4
18 -15 24 -17 37 -6 13 11 14 10 10 -2 -4 -9 0 -15 11 -15 9 0 19 9 22 19 2
10 11 18 19 18 9 0 13 6 10 14 -7 18 18 40 33 31 7 -4 7 1 -1 13 -11 17 -10
24 2 38 9 11 9 15 2 10 -8 -4 -13 -1 -13 9 0 10 -5 14 -12 9 -10 -6 -10 -4 0
7 14 16 16 33 2 24 -6 -3 -10 -1 -10 5 0 6 -4 9 -9 6 -4 -3 -13 6 -20 21 -6
14 -15 23 -18 19 -3 -3 -12 2 -20 12 -9 10 -12 11 -7 2 4 -8 -7 0 -25 18 -17
18 -36 30 -41 27 -6 -3 -7 1 -3 11 4 10 0 20 -11 26 -9 5 -13 14 -10 20 4 6 3
8 -3 5 -6 -4 -14 0 -17 9 -3 8 -11 12 -17 8 -7 -4 -10 -3 -6 2 3 5 -2 18 -10
29 -13 16 -15 17 -10 3 4 -10 2 -18 -3 -18 -6 0 -10 10 -10 21 0 17 -5 20 -21
16 -14 -4 -17 -2 -11 6 7 8 5 16 -3 24 -10 9 -15 9 -17 1 -2 -6 -12 5 -21 24
-9 19 -25 41 -34 49 -16 13 -17 12 -4 -3 8 -11 9 -18 3 -18 -6 0 -14 10 -17
23 -9 28 -54 69 -68 60 -5 -3 -7 -1 -3 5 3 6 2 13 -3 17 -6 3 -8 12 -4 21 3 8
-2 23 -11 33 -9 10 -13 21 -9 26 5 4 -3 2 -17 -5 -24 -13 -24 -12 -10 5 13 17
13 18 0 13 -9 -3 -27 6 -44 23 -25 24 -27 31 -16 44 11 13 11 16 -1 13 -8 -2
-13 3 -11 11 3 12 0 12 -12 2 -10 -8 -16 -9 -21 -1 -3 5 -2 10 3 10 5 0 9 7 9
15 0 11 -4 12 -13 4 -16 -13 -55 27 -47 49 4 10 2 13 -5 8 -7 -4 -12 -2 -12 6
0 7 -9 19 -20 26 -11 7 -20 21 -20 33 0 13 4 18 12 13 7 -4 8 -3 4 4 -4 6 -13
9 -21 5 -11 -4 -13 -1 -9 11 5 13 2 15 -12 10 -16 -6 -17 -5 -7 7 7 7 13 18
13 23 0 6 -5 4 -11 -4 -9 -12 -10 -11 -6 7 4 16 1 20 -11 16 -12 -5 -14 -1
-10 21 3 15 3 24 0 21 -3 -2 -12 1 -21 8 -14 11 -14 10 -2 -6 7 -9 9 -17 4
-17 -5 0 -15 11 -21 25 -10 21 -9 23 5 18 11 -5 14 -3 9 6 -5 8 -18 10 -35 7
l-26 -6 25 14 24 14 -24 4 c-14 1 -25 8 -25 13 -1 6 -6 21 -13 35 -13 24 -13
24 4 5 10 -12 15 -14 12 -5 -3 8 -15 20 -28 27 -20 10 -21 11 -4 16 17 4 17 5
2 6 -10 0 -18 6 -18 12 0 5 6 7 13 3 9 -6 9 -5 0 8 -7 8 -10 18 -6 21 3 4 -2
9 -11 13 -15 6 -15 7 1 20 16 12 16 12 -5 7 -22 -5 -24 -3 -21 30 2 20 -1 40
-5 44 -5 4 -6 2 -2 -4 4 -7 2 -13 -4 -13 -7 0 -9 7 -6 16 3 8 1 24 -4 34 -8
16 -8 18 5 14 8 -4 15 -1 15 5 0 6 -4 11 -9 11 -5 0 -11 11 -13 25 -4 18 -2
22 6 16 7 -6 11 -2 12 15 1 13 -2 24 -8 24 -5 0 -6 -4 -3 -10 3 -5 2 -10 -3
-10 -6 0 -8 18 -5 42 5 32 3 39 -7 33 -10 -6 -11 -4 -4 6 13 21 16 51 4 44 -5
-3 -10 -1 -10 4 0 6 10 11 23 11 22 1 22 1 -3 16 -14 8 -17 13 -8 10 10 -3 20
0 24 6 4 6 3 8 -3 5 -6 -4 -10 11 -11 35 -1 24 3 45 10 50 10 6 10 8 1 8 -7 0
-13 7 -13 16 0 8 5 12 10 9 6 -4 1 10 -10 31 -16 28 -18 35 -6 31 13 -5 13 -2
5 20 -8 22 -7 24 8 19 15 -6 16 -5 1 11 -16 18 -14 48 3 37 5 -3 9 0 9 5 0 6
-4 11 -9 11 -5 0 -11 7 -15 15 -4 13 -2 13 14 5 16 -9 18 -7 15 12 -3 13 -10
25 -15 26 -7 3 -7 9 1 18 7 8 9 18 5 21 -4 4 -11 1 -16 -7 -7 -11 -10 -11 -10
-2 0 7 7 15 15 18 21 8 8 25 -13 17 -11 -4 -8 2 8 16 21 19 22 22 5 17 -20 -6
-20 -6 -1 9 11 8 14 15 7 15 -9 0 -8 5 3 16 20 20 21 30 1 14 -10 -8 -15 -9
-15 -1 0 6 9 16 20 23 20 13 27 29 13 27 -5 -1 -15 -1 -23 1 -11 1 -9 4 5 10
18 8 18 9 2 9 -10 1 -16 5 -12 11 3 5 13 7 23 4 13 -5 14 -4 4 4 -8 5 -14 13
-15 18 -1 5 -6 8 -11 6 -5 -2 -4 4 3 12 7 8 10 20 6 25 -3 6 0 8 8 5 8 -3 14
1 14 10 0 8 -4 13 -9 10 -11 -7 -10 -2 7 39 11 27 12 35 3 32 -9 -4 -13 7 -13
33 0 23 5 39 12 39 9 0 9 -6 2 -21 -10 -20 -9 -20 5 -2 12 14 12 22 3 37 -10
16 -9 21 3 29 13 9 13 10 0 10 -13 0 -13 1 0 10 10 6 11 10 3 10 -7 0 -13 5
-13 11 0 6 6 9 14 6 10 -4 12 0 8 15 -4 16 -2 19 9 13 11 -7 12 -6 2 7 -7 8
-9 19 -5 23 4 5 0 5 -8 1 -8 -4 -6 0 5 10 17 14 17 16 2 11 -15 -6 -16 -2 -11
21 4 15 11 33 17 40 7 9 4 19 -9 34 -11 12 -14 18 -7 14 9 -5 11 3 9 28 -3 28
-1 34 13 29 14 -4 14 -3 -1 10 -12 9 -14 17 -7 24 8 8 7 13 -1 18 -8 5 -4 15
12 33 13 14 17 22 11 18 -7 -4 -13 -2 -13 3 0 6 5 11 11 11 6 0 3 7 -5 16 -20
19 -21 31 -2 15 11 -9 14 -6 14 14 0 15 -5 22 -12 19 -6 -3 -3 1 6 9 19 15 25
33 9 22 -5 -3 -13 0 -17 6 -4 7 -3 9 3 6 15 -10 22 27 10 49 -10 17 -9 18 8 4
17 -14 18 -14 7 7 -9 16 -9 24 -1 29 8 4 7 9 -2 15 -11 7 -10 9 3 9 9 0 19 -6
21 -12 4 -10 6 -10 6 -1 1 6 -9 19 -21 29 -18 13 -19 15 -4 10 17 -6 17 -5 5
11 -12 14 -12 16 0 9 9 -6 12 -5 9 5 -3 8 -11 13 -17 11 -7 -1 -10 2 -6 8 4 7
12 7 26 0 24 -13 25 -2 1 16 -16 12 -16 13 0 14 9 0 19 4 22 9 4 5 -4 7 -16 5
-13 -2 -17 -2 -10 2 6 3 12 10 12 15 0 6 -5 7 -11 3 -8 -4 -8 -1 -2 12 6 11 9
31 8 47 -1 19 3 27 14 28 11 0 12 2 3 6 -10 4 -10 8 0 21 11 14 10 15 -6 9
-14 -6 -16 -4 -9 5 6 7 10 25 9 41 -1 15 1 27 4 27 3 0 10 12 17 26 10 22 10
24 -3 13 -8 -6 -17 -9 -21 -5 -3 3 -1 6 6 6 8 0 11 6 7 16 -3 8 -2 12 3 9 5
-3 12 -1 16 5 3 5 2 10 -3 10 -5 0 -7 12 -5 28 2 15 5 32 5 39 1 6 7 9 14 6 8
-3 11 4 10 22 -2 18 5 32 23 47 15 13 19 19 8 15 -15 -6 -16 -4 -7 13 6 11 8
20 4 20 -3 0 -1 6 5 14 6 8 11 18 10 22 -4 25 2 45 13 38 7 -5 8 -3 3 7 -12
19 -13 79 -1 86 5 3 6 1 2 -5 -5 -8 -2 -10 8 -6 14 5 14 8 1 21 -19 19 -19 32
1 40 10 4 12 8 5 13 -8 4 -4 16 11 35 12 16 17 25 9 21 -9 -6 -12 -5 -9 5 3 8
12 13 19 11 9 -1 7 3 -4 12 -10 8 -14 16 -8 17 5 2 11 18 14 35 3 17 10 40 16
51 5 11 7 24 3 28 -4 5 -1 5 6 1 8 -5 12 0 12 13 0 12 5 21 10 21 6 0 10 5 10
11 0 5 -4 8 -9 5 -5 -4 -4 5 2 18 7 13 15 22 18 20 4 -2 6 4 5 14 0 9 5 16 12
14 8 -1 11 2 7 8 -3 6 -10 8 -14 6 -4 -3 -8 1 -8 9 0 8 4 15 7 15 8 0 23 55
23 83 0 13 4 16 16 12 13 -5 13 -4 4 6 -10 10 -9 15 5 26 9 8 11 12 5 8 -16
-8 -16 -3 -1 30 6 14 15 25 20 25 5 0 7 4 3 9 -3 6 3 15 12 21 15 9 14 10 -7
5 -24 -6 -24 -5 -6 9 10 9 23 13 29 9 6 -3 7 -1 3 6 -4 6 -12 9 -17 6 -5 -3
-6 1 -3 9 3 9 9 14 14 11 4 -2 6 7 4 20 -1 14 1 25 5 25 3 0 7 17 8 38 2 47 8
79 22 115 6 15 7 27 4 27 -4 0 -2 5 5 12 7 7 12 20 12 30 0 10 11 46 24 80 26
66 38 100 41 108 6 27 32 95 50 135 22 48 37 85 40 95 0 3 11 24 23 47 12 23
22 49 22 58 0 8 5 15 11 15 5 0 7 5 4 10 -3 6 -1 10 6 10 6 0 9 8 6 19 -3 13
0 18 8 15 7 -3 16 0 21 7 5 8 3 10 -7 4 -11 -7 -11 -5 1 10 8 10 14 21 13 24
-1 3 1 8 4 11 4 3 3 -1 -2 -9 -5 -9 -4 -12 3 -7 7 4 12 14 12 22 0 10 5 12 13
8 7 -5 6 0 -3 11 -8 10 -10 16 -3 12 15 -9 37 29 27 46 -5 6 1 5 11 -3 17 -14
18 -14 6 9 -7 13 -9 21 -4 18 4 -3 14 1 21 9 7 8 8 14 2 14 -5 0 -10 5 -10 11
0 6 6 9 14 6 10 -4 13 3 11 23 -1 16 0 28 4 27 10 -2 53 24 48 30 -3 2 -16 -1
-29 -7 l-23 -12 23 21 c12 12 20 26 17 31 -3 4 6 7 19 6 19 -3 22 1 18 18 -5
19 -4 20 13 6 17 -14 18 -14 6 9 -7 13 -8 21 -3 17 6 -3 13 -2 17 4 4 6 11 7
17 4 7 -4 8 -2 4 4 -4 6 -14 8 -23 5 -15 -6 -16 -5 -3 9 8 8 21 13 28 11 8 -4
10 0 5 13 -5 13 -3 16 9 11 12 -4 14 -1 10 15 -3 14 -1 19 6 14 7 -4 12 -1 12
7 0 8 10 22 23 31 12 9 15 14 7 11 -10 -4 -9 -2 3 8 9 8 17 19 17 26 0 6 5 11
11 11 5 0 8 4 4 9 -3 6 4 15 15 21 11 6 18 15 15 21 -4 5 -3 9 2 9 4 0 21 11
37 25 16 14 26 25 21 25 -4 0 3 9 16 20 13 10 21 19 18 20 -4 0 10 17 30 39
20 21 52 57 71 80 19 22 43 44 53 47 10 3 17 8 14 10 -2 2 22 31 55 64 32 33
58 65 58 71 0 5 5 7 10 4 6 -3 10 0 10 8 0 7 9 23 19 34 11 12 17 24 14 27 -4
3 2 6 12 6 10 0 16 3 13 6 -7 7 44 60 55 56 5 -1 6 2 2 8 -3 5 1 13 9 16 9 3
14 10 11 14 -3 5 4 12 16 15 17 6 19 9 8 16 -8 5 -11 9 -6 10 4 1 10 2 15 3 9
2 62 55 62 62 0 11 28 33 34 27 3 -4 6 -1 6 6 0 16 26 42 34 34 3 -4 6 -1 6 5
0 14 80 99 80 86 1 -5 6 1 13 13 7 12 14 21 17 21 3 -1 18 10 34 25 16 15 32
24 37 21 5 -3 9 2 9 10 0 9 7 16 15 16 8 0 15 5 15 10 0 6 5 10 11 10 6 0 18
9 27 20 10 11 27 22 40 25 26 5 54 30 44 39 -4 4 5 3 20 -3 23 -9 26 -8 21 6
-4 11 -3 14 5 9 7 -4 12 -2 12 4 0 6 5 8 10 5 6 -3 10 -2 10 3 0 9 37 25 53
23 4 -1 7 3 7 7 0 5 19 16 43 27 23 10 45 23 49 29 5 7 8 6 8 -4 1 -11 4 -10
15 4 8 11 15 17 15 14 0 -4 12 -1 27 7 21 11 30 12 42 2 10 -8 13 -8 8 -1 -4
7 0 15 9 18 8 3 12 2 9 -4 -3 -6 -2 -10 3 -10 6 0 12 7 16 15 7 18 27 20 22 3
-1 -7 -1 -10 1 -5 3 4 12 7 21 7 13 0 14 2 4 9 -10 6 -9 11 4 22 10 8 15 9 11
2 -4 -6 -3 -14 2 -17 5 -4 8 5 7 19 -2 14 4 30 13 37 14 11 14 11 3 -4 -10
-12 -10 -18 -1 -24 7 -4 9 -3 5 4 -3 6 -2 14 4 17 8 5 7 12 -2 23 -11 13 -10
15 5 9 12 -5 16 -3 11 5 -4 6 2 18 12 26 16 13 17 14 2 9 -12 -4 -18 -1 -18 8
0 8 6 15 14 15 15 0 16 16 3 37 -4 6 -2 15 4 19 8 5 9 3 4 -6 -5 -9 -4 -11 3
-6 8 4 8 15 2 31 -6 16 -6 27 2 31 7 5 8 2 3 -7 -7 -12 -5 -12 6 -1 12 11 12
14 -1 22 -8 5 -10 10 -4 10 7 0 12 6 11 13 -1 37 4 49 19 43 10 -4 13 -2 7 6
-10 17 -12 48 -2 42 4 -2 10 0 14 6 3 5 1 10 -5 10 -6 0 -8 5 -5 10 4 6 10 8
15 5 11 -7 19 18 16 49 -3 22 -1 24 12 14 14 -12 14 -10 2 12 -12 23 -12 24 4
11 9 -8 19 -11 23 -7 3 3 2 6 -4 6 -6 0 -14 7 -17 16 -4 11 -2 15 8 11 16 -6
17 24 1 35 -6 5 -4 8 5 8 20 0 42 54 27 69 -7 7 -5 12 7 17 14 5 15 9 4 15
-10 7 -9 9 4 9 21 0 32 16 17 26 -8 5 -9 3 -4 -6 5 -9 4 -11 -3 -6 -15 9 -15
11 5 27 14 12 16 12 8 0 -5 -10 -4 -12 4 -7 8 6 9 12 2 20 -15 18 -1 28 17 13
13 -10 14 -9 4 10 -9 16 -9 24 0 29 7 5 8 3 3 -6 -5 -9 -4 -11 3 -6 7 4 12 18
12 32 0 14 7 27 15 30 8 4 12 10 9 15 -3 5 -11 6 -17 2 -7 -3 -4 3 6 14 9 11
14 23 10 28 -5 4 -2 5 5 1 11 -6 11 -11 0 -24 -12 -15 -11 -15 4 -4 9 8 15 23
13 35 -4 21 -4 21 15 -3 l20 -25 -15 38 c-9 22 -12 36 -7 33 6 -3 16 2 23 11
10 12 10 14 2 9 -16 -9 -16 -1 -3 25 9 16 14 17 33 8 l22 -11 -22 21 c-13 12
-23 24 -23 27 0 2 10 -1 23 -7 20 -11 21 -11 8 4 -9 12 -10 17 -2 17 7 0 9 5
6 10 -3 6 -1 10 4 10 6 0 11 -5 11 -12 0 -6 3 -9 6 -6 3 4 0 16 -6 29 -11 20
-10 21 11 16 23 -6 23 -5 5 8 -11 8 -14 15 -7 15 7 0 10 4 7 9 -8 12 21 34 34
26 17 -11 11 7 -7 21 -13 11 -14 13 -3 9 11 -4 20 5 29 30 7 19 17 33 22 30
18 -12 31 6 17 23 -11 14 -10 15 6 9 13 -5 17 -3 13 7 -8 20 16 38 39 30 17
-6 17 -5 -1 10 -11 10 -15 15 -9 12 7 -3 14 4 17 15 4 14 11 20 20 16 11 -4
14 2 12 25 -2 23 3 32 21 40 18 9 21 14 13 25 -11 13 -10 14 13 17 6 0 13 7
16 15 3 9 0 11 -8 6 -7 -4 -2 6 10 23 13 17 28 28 34 25 6 -4 4 2 -4 12 -14
17 -14 18 10 5 23 -12 24 -12 11 3 -11 14 -11 18 3 23 9 3 16 10 16 16 0 5 -5
6 -12 2 -6 -4 -3 5 8 19 10 15 23 27 28 27 5 0 1 -10 -10 -22 l-19 -23 22 19
c19 16 21 22 10 34 -6 9 -7 13 -2 10 6 -3 17 1 25 10 13 14 12 15 -2 10 -10
-4 -19 -1 -22 8 -3 8 -2 13 3 9 12 -7 19 15 13 37 -2 10 -9 15 -15 11 -6 -3
-7 -1 -3 5 4 6 12 10 19 8 7 -1 9 -1 5 1 -5 3 -8 11 -8 19 0 9 -4 13 -9 10 -5
-3 -16 9 -25 27 -8 17 -16 25 -16 17 -1 -10 -4 -9 -10 5 -5 11 -9 15 -9 10z
m-2476 -1855 c3 -5 -1 -10 -10 -10 -9 0 -13 5 -10 10 3 6 8 10 10 10 2 0 7 -4
10 -10z m-927 -2454 c-7 -8 -15 -12 -17 -11 -5 6 10 25 20 25 5 0 4 -6 -3 -14z
m-184 -864 c3 -5 -1 -9 -9 -9 -8 0 -12 4 -9 9 3 4 7 8 9 8 2 0 6 -4 9 -8z
m-39 -211 c3 -5 2 -12 -3 -15 -5 -3 -9 1 -9 9 0 17 3 19 12 6z m5 -35 c0 -2
-7 -7 -16 -10 -8 -3 -12 -2 -9 4 6 10 25 14 25 6z m-70 -476 c0 -5 -2 -10 -4
-10 -3 0 -8 5 -11 10 -3 6 -1 10 4 10 6 0 11 -4 11 -10z m350 -558 c0 -5 -7
-9 -15 -9 -8 0 -12 4 -9 9 3 4 9 8 15 8 5 0 9 -4 9 -8z m-10 -116 c0 -3 -4 -8
-10 -11 -5 -3 -10 -1 -10 4 0 6 5 11 10 11 6 0 10 -2 10 -4z m-39 -239 c-10
-9 -11 -8 -5 6 3 10 9 15 12 12 3 -3 0 -11 -7 -18z m-461 -147 c0 -5 -5 -10
-11 -10 -5 0 -7 5 -4 10 3 6 8 10 11 10 2 0 4 -4 4 -10z m0 -39 c0 -5 -7 -12
-16 -15 -14 -5 -15 -4 -4 9 14 17 20 19 20 6z m-3 -70 c0 -11 -7 -17 -14 -14
-9 4 -9 8 0 19 16 17 16 17 14 -5z m438 -351 c3 -5 1 -10 -4 -10 -6 0 -11 5
-11 10 0 6 2 10 4 10 3 0 8 -4 11 -10z m0 -69 c3 -5 2 -12 -3 -15 -5 -3 -9 1
-9 9 0 17 3 19 12 6z m-455 -96 c0 -2 -6 -8 -13 -14 -10 -8 -14 -7 -14 2 0 8
6 14 14 14 7 0 13 -1 13 -2z m939 -969 c9 -11 9 -16 -1 -22 -7 -4 -10 -4 -6 1
4 4 3 14 -3 22 -6 7 -9 13 -6 13 2 0 10 -6 16 -14z m-89 -2 c0 -8 -19 -13 -24
-6 -3 5 1 9 9 9 8 0 15 -2 15 -3z m-299 -179 c5 4 9 1 9 -4 0 -22 -44 0 -54
26 -6 14 -2 12 14 -5 12 -12 25 -20 31 -17z m409 -304 c0 -5 -9 -7 -20 -4 -11
3 -20 7 -20 9 0 2 9 4 20 4 11 0 20 -4 20 -9z m75 -31 c-8 -12 33 -32 48 -24
9 5 9 4 1 -5 -16 -17 -63 6 -61 30 1 10 5 15 9 13 5 -3 6 -9 3 -14z m322 -142
c-3 -8 -6 -5 -6 6 -1 11 2 17 5 13 3 -3 4 -12 1 -19z"/>
<path d="M4320 10136 c0 -2 7 -7 16 -10 8 -3 12 -2 9 4 -6 10 -25 14 -25 6z"/>
<path d="M8710 10069 c0 -5 -4 -7 -10 -4 -5 3 -10 -1 -10 -10 0 -10 -5 -13
-12 -9 -8 5 -9 2 -5 -9 4 -12 1 -17 -11 -17 -14 0 -15 -2 -2 -9 8 -6 18 -7 24
-4 5 3 6 1 2 -6 -4 -6 -11 -9 -16 -6 -5 3 -11 1 -15 -5 -3 -5 0 -10 8 -10 8 0
14 -8 13 -17 0 -11 7 -19 21 -21 14 -2 20 -8 17 -17 -4 -10 0 -12 17 -8 17 5
20 3 14 -8 -8 -12 -6 -12 8 0 12 9 17 10 17 2 0 -7 5 -9 12 -5 7 4 8 3 4 -5
-4 -6 -11 -9 -16 -6 -5 3 -11 1 -15 -4 -3 -6 3 -8 15 -6 12 2 28 -5 39 -17 11
-11 24 -17 30 -13 6 3 11 1 11 -5 0 -6 5 -8 13 -4 7 5 6 0 -3 -11 -8 -10 -10
-16 -4 -12 7 4 17 0 24 -8 7 -8 17 -12 22 -9 5 3 18 -3 29 -15 11 -12 24 -19
30 -16 5 4 9 -1 9 -9 0 -8 5 -18 12 -22 7 -4 8 -3 4 4 -11 18 10 14 25 -5 8
-10 9 -14 2 -10 -6 4 -14 3 -17 -2 -7 -11 13 -9 33 3 10 6 12 5 7 -2 -4 -7 -2
-12 5 -12 7 0 9 -9 6 -22 -6 -21 -5 -22 7 -5 13 16 14 16 19 -4 5 -19 8 -20
22 -9 9 7 15 9 14 4 -5 -26 1 -36 15 -25 12 10 14 8 9 -11 -4 -23 -4 -23 12
-3 17 20 17 20 10 -4 -6 -18 -4 -22 6 -15 19 11 49 13 43 2 -4 -5 -12 -7 -20
-4 -18 7 -18 -2 1 -20 12 -12 15 -12 15 -2 0 10 2 10 9 -1 5 -8 7 -19 5 -26
-3 -6 2 -12 10 -12 8 0 13 4 10 9 -3 4 0 8 7 8 6 0 9 -8 6 -20 -3 -11 0 -18 7
-17 6 1 10 -4 8 -10 -1 -7 5 -13 13 -13 14 0 19 -12 16 -32 0 -5 9 -8 22 -8
18 0 19 -2 7 -10 -12 -8 -12 -10 -1 -10 11 0 11 -3 0 -17 -11 -15 -10 -14 9 1
l22 19 -4 -32 c-3 -24 -1 -29 9 -21 9 8 14 6 19 -6 3 -9 4 -20 1 -25 -3 -4 3
-14 14 -20 10 -7 17 -19 14 -28 -4 -13 -3 -13 5 -2 8 10 14 11 28 1 15 -9 16
-10 2 -6 -12 3 -15 1 -11 -10 3 -9 12 -13 21 -9 12 4 11 1 -3 -15 -18 -20 -18
-21 0 -14 14 6 16 4 10 -6 -5 -8 -4 -11 1 -7 16 10 34 -8 36 -36 2 -20 5 -24
16 -15 7 6 12 7 11 2 -6 -20 13 -50 49 -78 20 -16 29 -26 20 -23 -10 4 -18 2
-18 -3 0 -6 5 -10 11 -10 5 0 7 -4 4 -10 -3 -5 3 -10 13 -10 22 0 32 -18 32
-61 0 -25 8 -33 31 -31 3 1 6 -5 6 -13 0 -8 -4 -12 -9 -9 -4 3 -8 -2 -8 -11 0
-9 5 -13 10 -10 13 8 13 -1 -2 -28 -10 -21 -10 -21 7 -7 17 14 18 14 5 -10
-13 -24 -12 -24 6 -10 10 8 16 10 12 6 -4 -5 -3 -15 3 -22 8 -9 5 -11 -13 -8
-13 2 -17 2 -10 -2 6 -3 9 -11 5 -17 -4 -7 0 -8 13 -3 18 7 18 6 2 -10 -17
-17 -17 -19 4 -42 21 -21 21 -23 3 -16 -20 7 -20 7 0 -16 11 -13 14 -20 7 -16
-11 7 -12 4 -3 -12 6 -11 11 -30 11 -42 0 -12 4 -19 10 -15 5 3 9 -12 8 -37
-2 -29 2 -42 10 -41 8 2 9 -4 2 -22 -6 -17 -6 -25 1 -25 5 0 9 -6 8 -12 -4
-36 2 -59 14 -52 8 5 8 2 -2 -9 -11 -14 -11 -17 0 -17 11 0 11 -2 -1 -10 -11
-7 -11 -10 -2 -10 7 0 10 -4 7 -10 -3 -5 -1 -10 5 -10 6 0 8 -5 5 -10 -4 -6
-2 -17 5 -25 7 -9 8 -15 0 -20 -7 -4 -7 -13 1 -27 9 -16 8 -23 -2 -29 -8 -5
-9 -9 -4 -9 6 0 11 -18 12 -40 2 -29 -1 -39 -9 -34 -7 5 -8 3 -2 -7 13 -22 14
-42 1 -58 -7 -9 -8 -12 -1 -8 7 4 11 -5 12 -24 0 -20 -3 -27 -11 -22 -7 4 -6
-1 2 -11 12 -14 12 -19 2 -26 -11 -6 -11 -8 0 -12 8 -3 10 -9 4 -19 -5 -8 -8
-21 -7 -30 2 -9 -5 -19 -14 -23 -14 -5 -14 -9 -3 -23 10 -12 10 -14 2 -9 -13
7 -16 -3 -16 -46 0 -10 -4 -15 -10 -11 -6 4 -8 -2 -5 -15 4 -12 0 -26 -8 -33
-8 -7 -13 -18 -10 -25 3 -9 -1 -11 -12 -7 -15 6 -16 5 -2 -12 9 -11 10 -16 3
-11 -12 6 -18 -5 -14 -26 0 -5 -3 -8 -9 -8 -5 0 -6 -7 -3 -17 5 -12 3 -14 -7
-8 -10 6 -12 4 -7 -9 6 -14 3 -17 -10 -12 -15 6 -16 5 -5 -5 14 -15 16 -33 2
-24 -6 3 -15 -6 -20 -20 -7 -17 -15 -25 -25 -22 -9 4 -12 1 -8 -9 3 -9 -1 -14
-12 -14 -9 0 -13 -4 -10 -10 3 -5 1 -10 -6 -10 -7 0 -9 -3 -6 -7 4 -3 -2 -13
-13 -20 -11 -8 -18 -19 -15 -24 4 -5 -1 -9 -10 -9 -11 0 -15 -5 -11 -15 3 -8
2 -14 -2 -14 -21 3 -32 -3 -32 -17 0 -8 -5 -12 -11 -9 -6 4 -13 -2 -16 -14 -5
-18 -8 -19 -21 -9 -11 9 -13 9 -9 1 4 -6 2 -15 -4 -18 -5 -4 -8 -12 -6 -19 3
-6 -3 -12 -12 -12 -9 -1 -23 -4 -31 -8 -11 -5 -16 -1 -16 14 0 11 3 20 6 20 4
0 6 10 5 23 -1 12 5 30 13 40 10 11 11 17 3 17 -9 0 -9 5 -1 20 8 15 8 20 -2
20 -10 0 -10 2 0 9 9 5 14 30 14 69 1 37 5 59 10 56 6 -4 5 3 -1 15 -7 12 -8
27 -4 34 11 18 11 87 0 87 -5 0 -5 5 1 13 8 10 6 17 -8 27 -10 7 -17 17 -15
21 3 4 -2 9 -10 13 -8 3 -15 0 -15 -6 0 -7 -5 -6 -15 2 -12 10 -15 10 -15 -4
0 -9 -6 -16 -13 -16 -8 0 -12 -12 -12 -32 0 -18 -3 -41 -7 -50 -5 -10 -3 -18
5 -21 9 -4 9 -6 -1 -6 -7 -1 -10 -5 -7 -11 3 -5 0 -10 -7 -10 -9 0 -9 -3 2
-10 10 -7 11 -13 5 -17 -6 -5 -12 -21 -13 -36 -1 -16 -5 -34 -9 -40 -4 -7 -6
-20 -4 -31 1 -10 -1 -16 -6 -13 -4 3 -8 -10 -7 -29 1 -19 -2 -34 -7 -34 -6 0
-9 -6 -8 -12 3 -19 -19 -68 -30 -68 -5 0 -8 -11 -7 -25 2 -13 -1 -22 -5 -19
-5 3 -9 0 -9 -6 0 -6 -4 -8 -10 -5 -5 3 -7 0 -5 -8 3 -7 -6 -26 -20 -41 -14
-15 -25 -31 -25 -37 0 -5 -3 -8 -7 -8 -20 3 -23 -3 -12 -23 11 -20 10 -21 -2
-11 -12 10 -17 8 -29 -10 -12 -19 -11 -20 2 -10 12 10 15 10 15 -2 0 -8 -6
-15 -13 -15 -7 0 -16 -5 -20 -12 -5 -8 -2 -9 9 -5 9 3 19 1 23 -5 4 -6 3 -8
-3 -5 -6 4 -13 -6 -15 -23 -4 -27 2 -35 24 -31 4 0 4 -7 1 -16 -4 -11 -3 -14
5 -9 15 9 16 -6 2 -20 -7 -7 -6 -11 4 -11 8 0 13 4 10 9 -3 4 0 8 5 8 6 0 11
-4 11 -10 0 -5 5 -10 11 -10 5 0 8 4 5 8 -5 9 39 10 49 1 10 -10 74 16 91 37
8 10 12 12 8 4 -5 -9 1 -8 15 5 13 11 25 18 27 15 2 -3 12 3 24 12 11 10 20
15 20 11 0 -3 8 3 18 14 9 11 27 23 40 27 12 4 20 12 17 17 -4 5 1 9 10 9 8 0
18 7 21 15 5 11 10 13 19 5 10 -8 15 -8 21 1 5 8 3 9 -6 4 -9 -6 -11 -4 -6 4
5 7 14 10 22 7 8 -3 13 0 11 7 -1 7 6 11 15 11 11 -1 14 4 10 14 -4 12 -1 14
13 8 11 -4 17 -4 13 -1 -9 9 33 56 44 49 5 -3 7 -2 6 3 -4 13 24 48 54 67 15
10 25 22 22 27 -3 5 0 9 6 9 6 0 9 4 6 9 -4 5 4 7 16 4 18 -4 20 -3 8 6 -12 8
-10 12 10 20 14 5 19 10 11 10 -15 1 -6 15 10 17 22 3 23 5 9 14 -13 8 -13 10
3 11 33 3 37 4 37 12 0 4 0 10 0 13 0 4 -7 1 -15 -6 -8 -7 -15 -10 -15 -6 0 3
15 16 33 27 17 12 23 18 12 15 -19 -6 -18 -5 2 13 12 10 19 21 16 25 -4 3 -1
6 6 6 8 0 11 7 7 15 -5 13 3 18 24 17 3 0 6 12 6 26 1 15 -1 21 -3 15 -3 -7
-10 -13 -16 -13 -7 1 1 11 17 24 20 17 25 26 16 31 -9 6 -11 4 -5 -5 5 -9 4
-11 -4 -6 -8 6 -9 12 -2 20 6 7 7 17 3 21 -4 5 -2 5 4 2 7 -4 15 0 18 9 8 22
8 26 -3 19 -5 -3 -2 9 7 27 17 35 23 80 9 71 -5 -3 -4 5 3 17 9 18 9 24 0 30
-8 5 -9 10 -2 14 11 7 9 37 -4 58 -4 7 -3 8 4 4 7 -4 12 -1 12 9 0 10 -5 13
-12 9 -7 -5 -8 -3 -4 5 5 7 15 10 25 7 14 -5 13 -4 -1 8 -20 15 -24 31 -5 20
8 -5 8 -2 -2 9 -9 11 -10 17 -2 17 8 0 6 8 -4 23 -8 13 -12 27 -8 31 12 11 12
66 1 66 -7 0 -6 5 1 13 8 10 7 17 -1 25 -9 9 -9 12 2 12 13 0 13 2 0 10 -8 5
-11 10 -6 10 5 0 3 7 -4 15 -8 10 -9 15 -2 15 6 0 9 6 7 13 -3 6 -7 33 -8 58
-2 25 -8 52 -13 60 -5 8 -7 22 -6 32 2 10 -2 26 -10 35 -8 10 -9 13 -1 9 8 -5
11 1 8 20 -2 16 -4 29 -6 31 -1 1 -2 6 -3 12 0 5 -6 14 -13 21 -7 7 -9 19 -3
34 5 13 5 26 0 31 -5 5 -10 28 -11 52 -2 23 -7 42 -13 42 -5 0 -6 3 -3 6 3 4
0 16 -8 27 -10 15 -11 25 -4 40 7 12 7 17 1 13 -5 -3 -16 2 -23 11 -12 15 -12
16 5 9 19 -6 19 -6 3 12 -9 10 -14 22 -10 25 3 4 -1 7 -10 7 -19 0 -23 15 -6
26 8 5 6 10 -5 16 -9 5 -14 13 -11 19 4 5 2 9 -2 9 -5 0 -14 9 -21 21 -8 12
-9 18 -3 14 20 -12 11 10 -9 25 -11 8 -20 23 -20 33 0 11 -5 15 -11 11 -8 -4
-8 0 0 15 7 12 8 20 4 19 -4 -2 -9 1 -10 6 -1 5 -7 13 -15 17 -10 7 -10 9 2 9
11 1 9 4 -5 13 -12 7 -21 21 -21 32 0 11 -6 19 -13 17 -7 -1 -10 2 -7 7 4 5 0
16 -8 24 -10 10 -12 17 -4 25 7 7 5 10 -8 9 -10 -1 -19 4 -20 11 -1 6 -3 15
-4 20 -1 4 -2 10 -1 15 0 4 -4 7 -9 7 -6 0 -10 7 -10 15 0 8 -4 15 -10 15 -5
0 -10 7 -10 15 0 8 -4 15 -10 15 -5 0 -10 9 -10 20 0 11 -5 20 -11 20 -5 0 -7
5 -3 12 4 7 3 8 -5 4 -11 -7 -33 32 -24 46 2 4 -4 5 -13 1 -11 -4 -15 -3 -10
5 3 6 -2 13 -12 16 -10 3 -26 21 -36 38 -25 42 -48 66 -63 61 -11 -4 -29 34
-24 51 1 5 -6 3 -15 -5 -16 -12 -17 -12 -11 3 5 13 0 19 -19 24 -14 4 -37 22
-51 41 -18 23 -32 33 -44 30 -11 -3 -17 0 -16 7 1 6 -8 10 -23 8 -17 -1 -21 1
-11 7 9 6 10 11 2 15 -6 4 -11 4 -11 -1 0 -4 -4 -2 -9 5 -4 7 -18 14 -29 15
-12 1 -22 5 -22 9 0 4 -7 8 -16 8 -8 0 -13 4 -10 9 4 5 -3 7 -14 4 -13 -4 -20
0 -20 10 0 8 -13 20 -30 27 -18 7 -27 17 -23 24 4 6 -1 5 -11 -3 -9 -8 -16
-10 -15 -5 1 5 1 15 0 23 -1 11 -4 11 -18 0 -15 -12 -16 -12 -11 3 5 12 1 16
-17 13 -14 -1 -22 1 -20 5 2 4 -8 13 -23 21 -15 8 -33 20 -40 27 -16 14 -36
16 -27 2 3 -6 -1 -7 -9 -4 -9 3 -16 11 -16 16 0 6 -6 5 -15 -2 -11 -9 -15 -9
-15 -1 0 9 -5 9 -21 0 -15 -8 -19 -8 -15 0 4 6 2 11 -3 11 -6 0 -11 -5 -11
-11z m200 -245 c0 -8 -19 -13 -24 -6 -3 5 1 9 9 9 8 0 15 -2 15 -3z m345 -14
c3 -6 -1 -7 -9 -4 -18 7 -21 14 -7 14 6 0 13 -4 16 -10z m130 -360 c3 -5 1
-10 -4 -10 -6 0 -11 5 -11 10 0 6 2 10 4 10 3 0 8 -4 11 -10z m31 -97 c-3 -4
-6 -1 -6 6 0 7 -4 10 -9 6 -5 -3 -13 0 -17 6 -4 8 -3 9 4 5 7 -4 12 -1 12 6 0
8 5 6 11 -5 6 -10 8 -21 5 -24z m68 -21 c3 -5 -1 -9 -9 -9 -8 0 -12 4 -9 9 3
4 7 8 9 8 2 0 6 -4 9 -8z m0 -48 c3 -8 2 -12 -4 -9 -6 3 -10 10 -10 16 0 14 7
11 14 -7z m76 -50 c0 -8 -19 -13 -24 -6 -3 5 1 9 9 9 8 0 15 -2 15 -3z m30
-84 c0 -5 -2 -10 -4 -10 -3 0 -8 5 -11 10 -3 6 -1 10 4 10 6 0 11 -4 11 -10z
m65 -60 c3 -6 -1 -7 -9 -4 -18 7 -21 14 -7 14 6 0 13 -4 16 -10z m20 -60 c3
-6 -1 -7 -9 -4 -18 7 -21 14 -7 14 6 0 13 -4 16 -10z m-20 -20 c3 -5 1 -10 -4
-10 -6 0 -11 5 -11 10 0 6 2 10 4 10 3 0 8 -4 11 -10z m50 -190 c-3 -5 -12
-10 -18 -10 -7 0 -6 4 3 10 19 12 23 12 15 0z m189 -488 c3 -5 -1 -9 -9 -9 -8
0 -12 4 -9 9 3 4 7 8 9 8 2 0 6 -4 9 -8z"/>
<path d="M4250 9825 c-11 -13 -10 -14 4 -9 9 3 16 10 16 15 0 13 -6 11 -20 -6z"/>
<path d="M9280 9795 c0 -2 6 -8 13 -14 10 -8 14 -7 14 2 0 8 -6 14 -14 14 -7
0 -13 -1 -13 -2z"/>
<path d="M4190 9730 c-9 -6 -10 -10 -3 -10 6 0 15 5 18 10 8 12 4 12 -15 0z"/>
<path d="M4105 9611 c-6 -11 13 -26 22 -17 4 3 1 6 -6 6 -7 0 -9 5 -6 10 3 6
4 10 1 10 -3 0 -7 -4 -11 -9z"/>
<path d="M4055 9530 c3 -5 8 -10 11 -10 2 0 4 5 4 10 0 6 -5 10 -11 10 -5 0
-7 -4 -4 -10z"/>
<path d="M3995 9450 c-3 -5 -1 -10 4 -10 6 0 11 5 11 10 0 6 -2 10 -4 10 -3 0
-8 -4 -11 -10z"/>
<path d="M8067 9246 c-3 -7 -2 -17 3 -22 5 -5 -3 -10 -18 -10 -15 -1 -21 1
-14 3 6 3 12 9 12 15 0 6 -6 6 -15 -2 -8 -7 -12 -17 -8 -23 3 -5 -3 -16 -13
-24 -10 -8 -18 -17 -17 -21 0 -4 -3 -6 -8 -4 -6 1 -5 -7 2 -19 9 -18 9 -21 -3
-16 -9 3 -15 -1 -15 -9 0 -9 7 -13 16 -9 11 3 10 0 -3 -10 -14 -10 -15 -15 -6
-15 10 0 11 -3 3 -11 -8 -8 -9 -19 -2 -37 9 -23 8 -24 -8 -11 -9 8 -14 9 -10
2 4 -6 1 -14 -5 -16 -7 -3 -4 -6 7 -6 17 -1 17 -3 5 -11 -8 -5 -10 -10 -4 -10
12 0 4 -65 -10 -88 -3 -6 -1 -14 5 -18 8 -5 7 -9 -2 -14 -10 -7 -10 -12 0 -23
10 -12 9 -18 -2 -29 -10 -9 -12 -20 -6 -35 7 -18 5 -21 -8 -16 -13 5 -15 2
-10 -12 4 -9 2 -24 -4 -31 -6 -8 -8 -14 -4 -14 4 0 2 -7 -5 -15 -7 -8 -9 -15
-4 -15 4 0 -1 -7 -12 -16 -10 -8 -13 -13 -6 -9 15 8 16 -11 1 -20 -6 -4 -8
-13 -5 -21 3 -8 1 -14 -5 -14 -6 0 -7 -5 -3 -12 5 -7 2 -9 -7 -6 -9 4 -15 -2
-15 -16 -4 -50 -9 -64 -21 -59 -7 3 -13 0 -13 -6 0 -6 6 -11 13 -11 9 0 9 -2
-1 -9 -8 -4 -13 -11 -13 -15 3 -20 0 -26 -10 -20 -7 4 -10 1 -7 -7 3 -8 -2
-20 -11 -27 -9 -8 -11 -11 -4 -8 7 4 9 -1 6 -15 -4 -13 -11 -18 -21 -14 -12 4
-13 3 -2 -10 8 -10 9 -15 1 -15 -6 0 -11 -7 -11 -16 0 -8 -5 -12 -11 -9 -6 4
-9 0 -7 -11 2 -11 -2 -18 -9 -17 -6 1 -10 -5 -9 -15 2 -9 -5 -23 -16 -30 -10
-7 -16 -17 -13 -22 3 -5 -3 -15 -12 -22 -10 -7 -19 -20 -21 -28 -2 -8 -10 -22
-19 -30 -12 -11 -14 -12 -8 -1 5 9 4 12 -3 7 -6 -4 -9 -13 -5 -22 3 -8 2 -14
-3 -13 -15 4 -44 -13 -44 -24 0 -7 4 -7 12 1 7 7 17 12 22 12 6 0 0 -7 -12
-16 -12 -8 -20 -20 -17 -25 3 -5 -2 -6 -11 -2 -13 5 -15 3 -9 -7 6 -10 4 -12
-8 -7 -11 4 -14 2 -10 -9 3 -7 0 -14 -7 -14 -6 0 -9 -4 -6 -9 3 -5 -4 -11 -17
-15 -19 -5 -20 -8 -7 -17 12 -9 11 -10 -8 -6 -12 3 -20 1 -17 -4 8 -12 -33
-51 -46 -44 -5 4 -8 1 -7 -7 2 -7 -3 -12 -10 -10 -8 1 -11 -2 -7 -7 7 -12 -29
-33 -40 -23 -5 4 -5 2 -2 -4 6 -11 -19 -29 -35 -26 -5 1 -7 -1 -7 -6 3 -19 -2
-33 -11 -27 -6 3 -24 -3 -41 -15 -17 -13 -38 -20 -50 -17 -10 3 -16 1 -13 -4
3 -5 -3 -12 -13 -16 -10 -4 -20 -10 -23 -15 -5 -6 -34 -15 -63 -17 -5 -1 -5
-6 -1 -12 4 -7 1 -10 -7 -7 -8 3 -13 11 -11 17 1 7 -2 10 -8 6 -6 -3 -8 -10
-5 -15 9 -14 -15 -23 -30 -10 -11 9 -13 7 -9 -12 2 -13 1 -17 -2 -10 -5 10 -9
9 -20 -5 -8 -10 -13 -13 -12 -8 2 6 -1 10 -7 10 -5 0 -9 -6 -7 -12 3 -11 -17
-18 -41 -14 -4 0 -6 -2 -5 -6 2 -5 -1 -8 -7 -8 -5 0 -9 3 -7 8 4 12 -5 8 -19
-10 -12 -15 -12 -16 1 -8 12 6 13 6 2 -6 -11 -12 -14 -12 -22 1 -9 14 -14 7
-11 -13 1 -4 -7 -3 -17 2 -14 7 -26 5 -47 -9 -16 -10 -33 -16 -38 -13 -5 3
-13 -1 -18 -8 -6 -10 -9 -11 -9 -1 0 6 -5 12 -11 12 -5 0 -7 -5 -4 -10 8 -13
-18 -8 -27 5 -5 6 -8 5 -8 -2 0 -7 -8 -13 -18 -13 -10 0 -24 6 -31 13 -10 10
-11 9 -6 -4 5 -13 0 -16 -24 -13 -17 2 -33 -1 -36 -6 -9 -14 -27 -1 -19 13 3
7 -2 3 -10 -7 -12 -15 -16 -16 -16 -5 0 9 -3 10 -8 3 -4 -5 -29 -11 -57 -13
-27 -1 -54 -7 -59 -12 -14 -13 -28 -11 -20 4 6 10 4 10 -7 0 -7 -7 -20 -13
-28 -13 -14 0 -14 2 -1 11 12 9 11 9 -5 4 -11 -4 -26 -8 -32 -8 -7 0 -13 -4
-13 -7 0 -4 -13 -6 -30 -5 -16 1 -30 -2 -30 -7 0 -6 -8 -4 -17 3 -11 10 -14
10 -9 2 5 -9 -1 -13 -21 -14 -15 -1 -32 0 -38 1 -17 4 -29 3 -49 -6 -15 -6
-17 -4 -11 6 5 9 0 8 -15 -3 -19 -13 -27 -14 -39 -4 -12 10 -13 9 -6 -2 6 -11
3 -13 -13 -9 -12 4 -22 1 -22 -4 0 -7 -5 -7 -13 0 -10 9 -19 7 -37 -5 -13 -9
-20 -11 -16 -5 4 7 3 12 -3 12 -5 0 -11 -4 -13 -9 -1 -5 -12 -11 -23 -13 -11
-1 -26 -10 -33 -18 -10 -13 -11 -13 -6 3 3 9 2 17 -4 17 -5 0 -13 -8 -17 -17
-7 -17 -8 -16 -15 2 -7 16 -9 17 -9 3 -1 -12 -8 -15 -25 -12 -14 2 -28 -1 -32
-7 -5 -8 -3 -9 6 -4 9 6 11 4 5 -4 -5 -9 -10 -10 -18 -2 -15 15 -30 14 -24 -2
3 -9 -7 -12 -35 -12 -29 0 -44 -5 -54 -19 -8 -11 -14 -17 -14 -12 0 5 -7 3
-15 -4 -11 -9 -15 -9 -15 -1 0 7 -5 9 -10 6 -6 -4 -8 -9 -6 -13 2 -4 -6 -7
-19 -7 -13 0 -21 3 -18 8 2 4 -1 7 -6 7 -6 0 -11 -5 -11 -11 0 -6 -7 -8 -16
-5 -11 4 -15 2 -11 -8 4 -10 1 -13 -9 -9 -8 3 -24 -3 -36 -13 -12 -11 -18 -13
-14 -6 12 20 -8 14 -23 -7 -8 -11 -20 -17 -26 -15 -7 3 -19 -2 -28 -10 -8 -8
-18 -12 -22 -8 -5 4 -5 -2 -1 -12 5 -15 4 -17 -8 -7 -11 9 -15 8 -20 -4 -3 -8
-12 -15 -20 -15 -8 0 -16 -5 -18 -10 -2 -6 -13 -12 -25 -13 -12 0 -19 -5 -16
-11 4 -5 -3 -7 -15 -4 -15 4 -19 2 -15 -8 3 -8 -1 -14 -10 -14 -8 0 -18 -6
-20 -12 -4 -10 -6 -10 -6 0 -1 6 -6 12 -13 12 -6 0 -9 -3 -5 -6 8 -8 -12 -28
-36 -37 -10 -4 -15 -11 -12 -17 4 -6 -1 -7 -11 -3 -10 4 -15 2 -11 -3 3 -6 2
-16 -4 -24 -8 -13 -9 -13 -9 0 0 10 -5 7 -16 -8 -9 -13 -20 -19 -27 -15 -8 4
-7 1 1 -9 11 -14 9 -16 -17 -14 -23 2 -28 -1 -20 -11 8 -9 6 -11 -11 -8 -18 3
-20 2 -10 -10 10 -12 9 -15 -3 -15 -8 0 -20 -7 -27 -15 -7 -8 -16 -12 -21 -9
-5 3 -6 -2 -3 -10 4 -9 -1 -18 -10 -22 -9 -3 -16 -13 -16 -20 0 -8 -9 -18 -19
-22 -11 -4 -20 -11 -21 -17 -1 -24 -12 -45 -21 -40 -5 4 -9 -1 -9 -9 0 -9 -4
-16 -10 -16 -5 0 -9 -3 -8 -7 4 -14 -23 -54 -32 -48 -5 3 -7 -4 -5 -15 2 -11
-4 -25 -14 -32 -10 -7 -20 -17 -22 -23 -2 -5 -8 -9 -12 -7 -5 1 -6 -2 -3 -7 3
-5 -3 -19 -13 -32 -10 -13 -16 -30 -13 -38 3 -8 0 -11 -7 -7 -7 5 -9 1 -5 -8
4 -11 0 -16 -12 -16 -15 0 -16 -2 -6 -9 11 -7 9 -13 -10 -31 -12 -13 -17 -20
-10 -16 10 6 10 2 1 -18 -7 -14 -17 -23 -23 -19 -6 3 -8 3 -4 -2 4 -4 3 -14
-4 -22 -9 -11 -7 -12 8 -7 18 5 18 5 2 -8 -9 -8 -20 -26 -23 -41 -4 -15 -12
-27 -19 -27 -6 0 -4 -5 4 -10 12 -7 12 -10 1 -10 -7 0 -11 -6 -8 -14 3 -8 -1
-17 -9 -20 -9 -3 -13 -10 -10 -15 3 -5 -1 -12 -10 -15 -9 -4 -14 -9 -11 -13
12 -12 -13 -42 -31 -37 -11 4 -13 3 -5 -3 14 -10 11 -45 -5 -51 -7 -2 -10 -7
-7 -12 8 -12 -21 -61 -31 -52 -4 4 -2 -1 5 -10 11 -15 11 -19 -4 -24 -10 -4
-15 -14 -12 -26 4 -14 1 -18 -8 -14 -8 3 -17 0 -21 -6 -4 -6 -3 -8 2 -5 6 3
16 2 24 -4 12 -7 12 -9 1 -9 -8 0 -11 -7 -8 -19 3 -15 1 -18 -11 -14 -11 5
-14 2 -10 -8 3 -8 1 -25 -5 -39 -5 -14 -9 -33 -8 -42 1 -11 -5 -18 -16 -18
-10 0 -14 -3 -8 -8 15 -10 13 -26 -8 -46 -11 -12 -14 -22 -9 -30 12 -15 11
-46 -1 -46 -5 0 -7 -13 -5 -29 2 -17 2 -28 -1 -27 -3 2 -13 -3 -21 -12 -13
-14 -13 -15 1 -10 10 4 15 0 15 -13 0 -11 -5 -18 -11 -15 -7 2 -12 -2 -12 -10
0 -7 4 -11 9 -8 4 3 8 0 8 -5 0 -6 -8 -11 -17 -11 -14 0 -15 -2 -4 -9 10 -6
10 -10 1 -16 -9 -6 -9 -10 1 -16 8 -5 9 -9 4 -9 -6 0 -12 -17 -13 -37 -2 -20
-8 -43 -14 -50 -5 -7 -8 -20 -4 -28 3 -10 -1 -15 -12 -15 -10 0 -13 -3 -7 -8
19 -13 17 -35 -2 -28 -9 4 -14 4 -10 0 4 -4 1 -14 -6 -23 -10 -14 -10 -14 5
-3 15 12 17 11 15 -7 0 -11 -4 -18 -8 -15 -4 2 -10 -3 -13 -12 -3 -8 -2 -13 2
-10 5 3 9 -2 9 -10 0 -9 -6 -13 -15 -9 -12 4 -12 2 -4 -8 9 -10 8 -18 -3 -33
-20 -26 -19 -40 2 -23 15 13 15 12 3 -11 -7 -13 -15 -42 -16 -64 -2 -22 -7
-42 -12 -45 -5 -3 -8 -16 -7 -28 1 -13 -1 -23 -4 -23 -3 0 -6 -20 -5 -45 1
-38 -2 -45 -15 -40 -13 4 -12 2 2 -9 16 -13 16 -14 -5 -30 -19 -14 -19 -16 -4
-11 16 5 17 3 6 -10 -7 -8 -9 -15 -5 -15 4 0 2 -7 -5 -15 -10 -12 -10 -15 1
-16 8 0 5 -4 -5 -8 -11 -4 -20 -15 -22 -24 -1 -10 1 -15 6 -12 4 3 6 -4 3 -15
-3 -11 -9 -17 -14 -14 -5 3 -4 -7 1 -21 7 -17 7 -24 0 -20 -6 3 -10 1 -10 -5
0 -6 -4 -9 -8 -6 -4 2 -9 -4 -9 -15 -1 -11 3 -17 9 -13 7 4 7 0 0 -12 -5 -11
-8 -26 -7 -35 2 -10 -4 -16 -12 -15 -9 0 -17 -7 -18 -16 -2 -11 3 -18 13 -19
14 0 13 -2 -3 -9 -12 -5 -14 -9 -6 -9 11 -1 10 -5 -5 -17 -10 -8 -14 -13 -8
-10 7 3 9 -3 6 -19 -2 -15 -9 -22 -16 -18 -6 4 -4 -2 4 -12 8 -10 10 -16 3
-12 -8 5 -11 -1 -9 -20 4 -36 -3 -55 -18 -46 -6 4 -4 -2 4 -12 8 -10 10 -16 4
-12 -7 4 -14 -1 -17 -12 -3 -15 -1 -18 12 -14 15 4 15 3 0 -9 -15 -12 -23 -52
-9 -43 11 7 0 -46 -17 -85 -9 -19 -18 -39 -20 -45 -2 -5 2 -2 10 8 20 24 30
22 17 -4 -7 -11 -9 -27 -6 -35 3 -8 0 -14 -7 -15 -7 0 -3 -4 8 -9 19 -7 19 -8
2 -15 -17 -7 -17 -8 0 -28 10 -11 12 -17 6 -13 -10 5 -13 -7 -12 -51 1 -32 6
-63 11 -70 6 -7 3 -15 -8 -21 -10 -6 -13 -12 -6 -16 6 -4 8 -17 3 -34 -4 -15
-5 -39 -1 -53 4 -15 4 -32 0 -39 -5 -8 -4 -24 1 -38 8 -21 7 -23 -8 -18 -15 5
-15 4 1 -9 19 -14 11 -21 -18 -16 -5 1 -4 -5 4 -13 15 -19 24 -21 14 -3 -4 6
-3 8 1 4 11 -9 16 -39 6 -33 -4 3 -13 -5 -21 -17 -12 -20 -12 -21 3 -8 15 11
17 11 17 -1 0 -8 -6 -20 -12 -27 -8 -9 -8 -11 -2 -8 15 9 25 -16 14 -34 -6 -8
-4 -16 3 -21 9 -6 9 -8 0 -8 -7 0 -13 -5 -13 -11 0 -5 6 -7 13 -4 6 4 3 -1 -7
-9 -17 -13 -18 -18 -6 -29 10 -10 11 -9 5 2 -5 9 -4 12 3 7 6 -4 9 -13 6 -21
-4 -8 -10 -13 -14 -10 -9 6 -8 -15 3 -31 3 -6 3 -14 0 -18 -13 -12 -11 -35 2
-46 16 -13 8 -43 -9 -33 -6 4 -5 -1 3 -10 11 -14 11 -17 0 -17 -12 0 -12 -2
-1 -9 7 -4 15 -20 16 -34 2 -19 -1 -24 -12 -19 -11 4 -13 2 -6 -9 4 -8 9 -18
11 -24 10 -46 13 -57 19 -68 5 -9 4 -9 -7 1 -7 6 -18 12 -24 12 -5 0 -4 -4 3
-9 8 -5 14 -24 15 -44 0 -20 5 -34 9 -31 13 8 9 -11 -4 -25 -10 -11 -10 -13 0
-7 8 5 12 -2 12 -23 0 -16 5 -33 10 -36 6 -4 8 -11 4 -16 -3 -5 0 -17 8 -26 7
-9 8 -14 2 -10 -7 4 -15 0 -18 -9 -4 -11 -2 -15 6 -11 8 3 13 -4 13 -19 0 -13
-4 -24 -9 -24 -6 0 -1 -7 10 -15 19 -15 19 -15 -1 -8 -17 6 -18 5 -7 -9 7 -8
10 -23 6 -32 -4 -9 -1 -16 6 -16 7 0 3 -9 -10 -20 -13 -11 -19 -20 -14 -20 6
0 16 6 23 12 11 10 13 10 7 1 -4 -7 -2 -13 4 -13 6 0 8 -5 5 -10 -4 -6 -10 -8
-13 -6 -4 2 -7 -13 -7 -34 0 -22 4 -36 10 -33 7 2 10 -10 7 -33 -3 -22 -1 -34
5 -31 13 8 11 -36 -2 -45 -6 -5 -3 -8 7 -8 11 0 15 -6 11 -20 -3 -11 -10 -17
-17 -13 -6 3 -7 2 -3 -3 5 -5 14 -9 20 -9 5 0 11 -11 12 -23 1 -13 8 -28 16
-33 8 -5 10 -9 5 -9 -5 0 -19 8 -30 17 -21 17 -20 17 0 -7 12 -14 19 -31 17
-37 -3 -7 0 -13 6 -13 6 0 11 -5 11 -11 0 -5 -4 -7 -10 -4 -5 3 -10 1 -10 -4
0 -6 5 -11 11 -11 6 0 9 -6 6 -14 -3 -7 0 -19 6 -26 9 -10 9 -11 -3 -6 -9 5
-9 2 2 -7 19 -15 13 -32 -7 -19 -6 4 -4 0 5 -8 16 -16 20 -44 7 -56 -4 -4 -7
-12 -7 -18 0 -6 5 -4 11 4 9 12 10 10 6 -8 -4 -18 -2 -21 7 -13 10 8 12 5 10
-12 -1 -12 -3 -23 -4 -24 -2 -3 -3 -39 -1 -49 1 -4 7 -2 14 4 9 8 12 5 12 -13
0 -13 -3 -21 -7 -18 -5 2 -8 -1 -8 -6 0 -6 5 -11 12 -11 6 0 8 -3 5 -7 -4 -3
-2 -12 4 -19 7 -8 6 -14 -2 -20 -8 -5 -9 -3 -4 6 6 9 4 11 -5 5 -10 -6 -8 -12
8 -25 12 -10 19 -20 16 -23 -9 -8 16 -48 26 -42 5 3 5 -7 0 -25 -6 -19 -5 -32
2 -36 7 -5 8 -2 4 7 -4 8 -1 6 7 -3 8 -10 18 -14 22 -10 5 4 5 1 1 -6 -4 -7
-11 -10 -16 -7 -5 3 -12 1 -15 -5 -4 -6 -1 -9 6 -8 7 2 15 -5 17 -16 2 -11 0
-16 -6 -12 -6 3 -13 2 -16 -3 -7 -11 13 -9 32 3 12 7 12 4 1 -15 -11 -21 -10
-22 2 -12 12 10 15 8 16 -15 2 -68 3 -73 16 -66 9 5 9 4 0 -6 -10 -11 -9 -16
4 -25 17 -13 28 -49 12 -39 -14 8 -11 -6 5 -21 7 -8 17 -11 22 -7 5 4 3 0 -4
-10 -9 -11 -9 -17 -2 -20 6 -2 12 -10 13 -18 2 -8 6 -21 10 -27 5 -7 5 -19 1
-25 -5 -8 0 -7 11 2 17 14 18 13 13 -7 -4 -14 -1 -24 9 -27 10 -4 13 -14 10
-27 -3 -12 0 -22 9 -26 8 -3 13 -13 12 -22 -2 -10 5 -17 20 -19 13 -2 22 -10
22 -20 0 -13 -2 -14 -9 -4 -7 11 -9 11 -14 -2 -4 -9 -3 -15 1 -15 21 4 39 -2
40 -13 5 -42 11 -71 18 -76 4 -4 4 1 1 11 -4 9 -2 17 3 17 6 0 10 -3 11 -7 3
-29 10 -43 33 -67 15 -14 24 -31 21 -36 -8 -13 19 -52 31 -42 4 4 2 -1 -5 -10
-12 -16 -11 -18 5 -18 14 0 16 -2 6 -9 -11 -6 -9 -9 7 -14 15 -3 18 -11 14
-28 -4 -19 -3 -21 6 -9 9 13 11 12 11 -3 0 -18 21 -45 37 -50 4 -1 7 -8 5 -14
-2 -7 4 -13 12 -13 8 0 23 -13 32 -29 10 -17 20 -28 24 -26 3 2 21 -14 39 -35
19 -22 38 -37 44 -33 6 3 7 1 3 -6 -4 -6 -11 -9 -15 -7 -4 3 -8 -1 -8 -8 0 -8
5 -12 12 -10 18 7 56 -31 44 -43 -7 -7 -3 -10 15 -8 20 3 27 -3 37 -28 6 -18
11 -36 10 -42 -1 -5 3 -4 10 2 7 7 20 13 29 13 13 0 13 -1 0 -10 -9 -6 -10
-10 -3 -10 21 0 65 -48 57 -62 -4 -7 2 -5 14 6 21 18 21 18 17 -2 -2 -14 1
-19 9 -16 7 3 18 -7 26 -21 11 -20 16 -23 29 -13 9 7 12 8 8 3 -4 -5 7 -17 25
-27 18 -9 26 -17 18 -18 -8 0 -2 -7 14 -15 37 -19 45 -19 20 1 -14 12 -11 11
11 -2 17 -9 36 -25 43 -33 11 -13 12 -13 7 -1 -3 8 1 5 10 -7 14 -18 21 -20
42 -12 20 7 24 6 20 -4 -3 -8 4 -14 20 -15 14 -1 21 2 18 8 -3 6 -4 10 0 10 3
0 14 -15 25 -32 11 -18 20 -28 20 -22 0 15 60 24 60 10 0 -6 7 -2 15 8 15 19
15 19 16 -5 0 -21 1 -22 8 -5 5 14 10 16 15 8 4 -7 12 -10 17 -7 5 4 9 1 9 -5
0 -6 5 -8 10 -5 6 4 7 12 4 18 -4 7 -4 9 1 5 4 -4 14 -3 22 4 11 9 15 7 20
-10 6 -23 18 -28 28 -12 3 6 15 10 26 10 13 0 18 4 13 12 -6 10 -4 10 7 1 7
-7 17 -13 22 -13 4 0 5 6 1 13 -6 9 -4 9 7 0 7 -7 19 -13 27 -13 8 0 10 5 6
13 -6 9 -4 9 8 -1 11 -9 18 -10 23 -2 3 5 11 10 16 10 6 0 7 -4 4 -10 -10 -17
7 -11 22 8 8 9 11 11 7 3 -5 -10 -1 -11 16 -6 14 5 20 3 16 -3 -3 -6 4 -6 18
1 13 7 22 15 20 19 -3 5 0 8 5 8 6 0 11 -6 11 -12 0 -10 2 -10 9 0 4 7 24 14
44 15 29 2 33 4 24 16 -9 12 -9 13 0 7 21 -12 54 -16 48 -5 -4 5 -11 6 -17 3
-7 -4 -8 -2 -4 5 4 6 11 9 16 6 5 -3 16 2 24 11 16 15 22 7 16 -21 -1 -5 2 -6
7 -2 4 5 9 13 9 18 1 5 2 14 3 19 0 6 5 10 11 10 5 0 7 -8 4 -17 -2 -10 1 -8
7 4 7 13 16 23 21 23 5 0 6 -6 3 -12 -4 -7 0 -4 9 6 8 10 13 22 11 27 -3 4 -1
11 5 14 6 4 10 3 9 -2 -1 -4 -1 -15 0 -23 1 -13 3 -13 10 0 6 8 7 18 5 22 -3
4 2 5 10 2 9 -3 16 -1 16 5 0 6 5 11 11 11 7 0 20 10 30 22 11 11 19 17 19 12
0 -6 -6 -16 -12 -24 -11 -12 -10 -12 3 -2 9 6 20 8 24 4 5 -4 5 2 1 12 -6 17
-5 17 10 5 16 -13 16 -12 6 8 -9 16 -9 24 0 29 7 4 8 3 4 -4 -4 -7 -2 -12 3
-12 10 0 16 21 12 43 0 4 2 6 6 6 19 -3 27 2 15 10 -7 4 -14 14 -15 22 -2 8
-7 21 -12 29 -8 13 -7 13 8 1 9 -7 15 -17 12 -21 -3 -5 0 -12 7 -16 7 -4 10
-4 6 1 -4 4 -2 15 5 23 10 13 9 14 -2 7 -11 -6 -13 -4 -8 9 4 10 3 15 -3 11
-6 -3 -10 1 -10 10 0 9 -10 26 -23 38 -17 16 -18 18 -2 7 11 -8 8 -1 -9 17
-16 18 -33 30 -38 27 -8 -5 -12 11 -9 30 1 5 -4 4 -13 -3 -11 -9 -16 -9 -22 0
-5 8 -3 10 7 5 8 -4 5 0 -5 8 -11 9 -26 16 -33 16 -7 0 -13 4 -13 9 0 5 -10
11 -22 13 -17 2 -23 9 -22 25 1 18 -2 21 -17 13 -15 -9 -17 -6 -14 18 2 15 2
21 -1 15 -8 -18 -27 -16 -21 1 8 20 -4 28 -20 14 -7 -6 -16 -8 -20 -4 -3 3 -1
6 6 6 17 0 -13 30 -31 31 -7 0 -4 4 7 9 19 8 19 9 -2 9 -13 1 -23 6 -23 11 0
6 -7 10 -16 10 -8 0 -12 5 -9 10 3 6 1 10 -5 10 -7 0 -10 7 -7 15 4 8 1 17 -5
21 -7 4 -8 3 -4 -4 4 -7 2 -12 -3 -12 -6 0 -11 5 -11 11 0 5 -5 7 -12 3 -8 -5
-9 -2 -5 9 5 13 1 17 -16 17 -18 0 -19 2 -7 10 13 8 12 10 -4 10 -13 0 -17 5
-13 20 3 10 2 19 -2 18 -19 -2 -31 3 -26 12 3 5 -5 12 -19 16 -17 4 -23 11
-19 22 5 11 3 13 -7 7 -10 -6 -12 -4 -6 10 6 16 4 16 -11 4 -10 -7 -15 -10
-11 -5 9 11 -31 48 -44 40 -7 -4 -8 -3 -4 4 4 7 2 12 -3 12 -6 0 -10 3 -10 8
3 19 -2 33 -11 27 -5 -3 -10 -1 -10 5 0 6 -5 8 -12 4 -7 -5 -8 -3 -3 5 7 12
-28 55 -37 46 -2 -2 -4 5 -4 15 0 11 5 20 10 20 5 0 6 3 3 6 -4 4 -14 1 -24
-7 -11 -9 -14 -10 -9 -2 4 8 2 13 -4 13 -6 0 -8 5 -5 10 3 6 1 10 -5 10 -6 0
-8 5 -5 10 3 6 1 10 -5 10 -6 0 -8 5 -5 11 4 6 0 9 -11 7 -10 -2 -19 2 -19 8
0 6 -8 18 -17 28 -10 10 -15 24 -11 34 6 15 5 16 -12 2 -11 -9 -16 -10 -11 -2
4 7 2 12 -5 12 -8 0 -8 4 1 15 11 13 10 14 -3 9 -15 -5 -45 14 -50 33 -1 4 -5
7 -9 5 -5 -1 -8 5 -8 14 0 9 5 12 12 8 7 -4 8 -3 4 4 -4 7 -17 12 -29 12 -18
0 -19 2 -7 10 13 8 12 10 -3 10 -11 0 -17 6 -15 18 2 12 -3 17 -19 16 -13 -1
-20 3 -17 8 3 5 -2 16 -12 24 -11 9 -13 13 -6 9 7 -4 12 0 12 10 0 13 -4 14
-22 4 -19 -9 -21 -9 -10 2 12 13 18 38 6 26 -4 -3 -15 -2 -26 4 -19 10 -19 12
-2 37 l17 27 -29 -25 c-16 -14 -22 -17 -15 -7 12 15 12 20 1 30 -10 9 -11 9
-6 0 4 -7 5 -13 2 -13 -3 0 -10 10 -17 21 -8 15 -8 19 0 15 6 -4 11 -2 11 3 0
12 -26 15 -33 4 -2 -5 -2 -3 -1 4 2 7 -1 15 -6 18 -6 4 -10 15 -10 25 0 10 -5
22 -12 26 -7 5 -8 3 -3 -6 6 -9 4 -11 -5 -5 -10 6 -9 11 6 23 18 13 18 14 -6
7 -22 -7 -23 -6 -11 9 8 9 11 19 7 23 -3 3 -6 1 -6 -5 0 -7 -5 -12 -11 -12 -6
0 -8 7 -5 16 3 8 2 13 -3 10 -5 -3 -12 1 -15 10 -3 8 -2 12 3 9 5 -3 13 0 17
6 4 7 3 9 -4 5 -12 -7 -45 22 -37 34 3 5 -4 11 -15 15 -11 3 -20 13 -20 21 0
9 -5 12 -12 8 -6 -4 -8 -3 -4 4 3 6 -4 20 -16 32 -21 20 -21 21 -3 15 11 -3 7
1 -10 9 -16 8 -23 16 -15 16 10 1 9 4 -5 10 -11 5 -14 9 -7 9 10 1 9 5 -3 17
-9 9 -14 23 -11 31 3 8 2 12 -2 10 -4 -3 -13 1 -20 9 -9 10 -10 14 -1 14 7 0
2 8 -9 19 -12 10 -19 21 -15 25 3 3 -2 6 -12 6 -15 0 -16 3 -7 12 17 17 15 25
-10 31 -19 5 -20 8 -7 23 12 16 12 17 -3 12 -21 -9 -31 2 -17 18 9 11 6 16 -9
21 -20 8 -22 11 -22 34 0 5 -4 8 -9 5 -4 -3 -8 2 -8 12 0 35 -3 43 -14 37 -6
-4 -10 -1 -8 6 3 29 -1 40 -13 33 -8 -5 -7 0 2 11 8 10 10 16 3 12 -13 -8 -38
64 -34 97 1 10 -1 16 -7 13 -5 -4 -9 0 -9 8 0 8 3 12 7 10 12 -8 4 35 -10 48
-10 9 -11 9 -6 0 4 -7 3 -13 -3 -13 -5 0 -9 9 -8 19 0 11 4 18 7 16 3 -2 6 6
7 18 0 12 -1 16 -4 10 -3 -7 -10 -13 -15 -13 -6 0 -8 3 -5 7 4 3 0 14 -8 23
-12 13 -13 23 -6 44 10 25 5 32 -22 27 -4 -1 -3 8 3 19 9 16 8 22 -5 27 -13 4
-14 8 -4 14 10 6 10 11 1 22 -7 8 -12 19 -11 23 4 24 -2 65 -9 60 -5 -3 -9 1
-9 9 0 8 3 12 7 10 4 -2 7 2 7 10 0 8 -4 12 -9 9 -4 -3 -8 9 -8 25 0 17 -4 31
-10 31 -5 0 -10 9 -10 19 0 11 -5 23 -10 26 -8 5 -8 11 0 20 7 8 7 14 1 17 -6
1 -11 19 -13 38 -1 19 -6 38 -12 42 -6 4 -4 13 5 24 9 11 9 15 2 10 -7 -4 -13
-4 -14 1 0 4 -2 20 -4 36 -2 15 0 25 4 23 4 -3 8 1 8 8 0 8 -5 12 -12 10 -6
-3 -11 4 -11 15 0 11 4 17 8 15 4 -3 8 -1 8 4 0 6 -7 13 -16 16 -11 4 -13 10
-7 19 6 6 13 21 16 32 l7 20 -16 -20 c-16 -19 -16 -19 -10 -1 4 12 1 23 -6 28
-10 6 -10 8 0 8 6 0 12 5 12 11 0 5 -6 7 -12 3 -7 -4 -4 3 7 16 l20 23 -22
-12 c-27 -14 -30 -4 -5 16 9 7 13 13 7 12 -22 -3 -29 2 -15 11 10 7 11 10 2
10 -9 0 -8 7 4 28 11 18 11 21 1 10 -21 -26 -24 -23 -23 20 1 20 -1 49 -5 63
-4 14 -2 33 3 42 7 13 5 15 -9 10 -16 -6 -16 -5 -4 10 11 14 11 17 0 17 -11 0
-11 2 1 10 13 9 13 10 0 10 -13 0 -13 1 0 10 13 9 8 14 -11 12 -4 -1 -4 8 -1
20 3 12 1 19 -4 16 -5 -4 -10 5 -10 18 -2 23 -1 24 13 7 13 -17 13 -17 4 3 -6
12 -7 25 -3 29 4 5 -1 5 -11 2 -15 -6 -16 -4 -6 14 7 13 7 19 1 15 -6 -3 -13
-2 -17 4 -3 5 0 10 8 10 8 0 18 7 21 16 5 14 4 15 -9 4 -8 -7 -15 -9 -16 -4 0
5 -2 17 -4 27 -2 9 1 17 6 17 5 0 9 5 9 11 0 5 -6 7 -12 4 -7 -4 -4 1 6 9 20
16 20 16 0 16 -16 0 -17 2 -4 10 8 5 10 10 4 10 -16 0 -11 59 6 71 13 9 12 10
-2 5 -21 -6 -23 4 -5 23 10 11 10 13 0 7 -7 -4 -13 -2 -13 3 0 6 6 11 13 11 8
0 7 4 -3 10 -14 9 -7 14 13 11 5 -1 6 3 2 9 -3 6 -11 8 -16 5 -13 -9 -11 9 4
24 10 11 9 12 -2 6 -9 -5 -12 -3 -9 6 3 8 11 13 17 11 7 -1 10 2 6 8 -3 6 -10
8 -14 6 -4 -3 -8 4 -8 15 -1 11 2 17 8 14 5 -4 9 -1 9 4 0 6 -4 11 -9 11 -5 0
-8 11 -8 25 0 16 4 22 11 18 6 -4 5 1 -3 10 -7 9 -10 17 -7 17 4 0 2 9 -4 20
-8 16 -8 20 2 18 7 -2 16 -7 20 -13 5 -6 8 -5 8 3 0 7 -7 15 -15 18 -8 4 -15
11 -15 16 0 6 6 8 14 5 14 -6 16 16 3 29 -4 4 1 13 11 21 9 8 12 12 6 9 -7 -3
-14 1 -18 9 -3 9 0 15 9 15 8 0 15 5 15 11 0 5 -4 8 -9 5 -5 -3 -11 3 -14 14
-3 11 0 23 5 27 6 3 8 1 4 -5 -3 -6 -3 -13 2 -16 12 -7 12 26 0 41 -6 7 -4 14
3 19 7 4 9 3 6 -3 -3 -5 1 -10 10 -10 12 0 11 5 -7 19 -22 18 -22 18 -1 18 12
0 21 5 21 11 0 5 -4 8 -9 5 -5 -3 -11 9 -13 28 -3 26 -1 33 11 28 9 -3 12 -1
8 5 -4 6 -1 14 5 16 9 4 8 6 -2 6 -10 1 -16 10 -16 25 0 14 4 22 8 20 5 -3 6
-9 4 -13 -3 -4 1 -8 9 -8 11 0 10 5 -2 24 -10 15 -11 23 -4 23 8 0 9 5 2 17
-6 12 -5 20 6 29 11 7 13 16 7 25 -13 21 -12 32 5 52 13 16 13 17 0 12 -11 -4
-15 0 -14 14 1 11 5 24 10 28 4 5 5 3 1 -4 -3 -6 -2 -14 3 -17 5 -3 7 10 4 30
-3 23 -1 34 5 30 6 -3 9 2 7 11 -2 10 -4 18 -5 18 -1 0 -3 8 -5 18 -2 10 5 27
16 38 23 23 26 37 4 19 -9 -7 -18 -10 -22 -6 -3 3 -1 6 6 6 7 0 11 7 8 15 -4
8 -1 17 5 21 7 5 8 2 3 -6 -6 -9 -4 -11 4 -6 7 5 10 11 7 14 -3 3 0 12 7 20
11 13 9 14 -13 2 -25 -13 -25 -13 -6 8 10 11 16 27 14 34 -3 7 2 19 11 26 9 8
10 11 4 7 -7 -3 -13 -1 -13 4 0 6 5 11 11 11 8 0 7 6 -2 17 -12 14 -12 16 2
11 13 -5 15 0 13 20 -1 15 1 31 6 37 5 7 8 21 5 32 -2 13 3 24 12 27 12 5 13
9 3 21 -9 11 -9 15 -1 15 7 0 10 10 7 25 -3 14 -1 25 4 25 4 0 6 9 3 20 -3 13
0 20 8 20 11 0 11 2 1 8 -16 10 -4 45 12 35 7 -4 7 -1 -1 8 -10 13 -10 19 1
34 8 11 12 25 9 32 -3 8 3 13 13 14 11 0 14 3 7 6 -7 2 -13 9 -13 14 0 6 5 7
10 4 6 -3 10 3 10 15 0 14 4 19 13 14 9 -5 9 -4 0 6 -12 13 -7 40 9 40 5 0 6
-5 2 -12 -4 -7 -3 -8 4 -4 6 4 9 13 6 21 -4 8 -11 12 -17 8 -6 -3 -7 -1 -3 6
4 6 12 8 18 5 7 -5 9 -1 5 9 -3 9 1 18 10 21 11 5 12 10 5 19 -7 8 -7 18 -2
27 5 8 6 18 3 24 -4 6 1 6 13 2 15 -6 17 -5 7 5 -15 15 -17 33 -3 24 6 -3 7 1
4 9 -3 9 -1 16 5 16 6 0 8 7 5 15 -4 9 0 15 7 15 12 0 12 2 0 9 -9 6 -10 11
-2 15 6 4 9 12 6 17 -4 5 -1 9 5 9 6 0 8 5 5 10 -3 6 -1 10 5 10 6 0 8 5 5 11
-4 5 1 20 12 31 12 15 13 19 3 14 -13 -7 -13 -6 0 6 8 7 16 24 18 37 1 13 11
35 21 50 11 14 21 35 23 46 1 11 12 28 22 38 11 10 21 27 23 39 2 12 11 27 21
35 9 8 11 12 5 8 -20 -10 -15 2 9 25 12 11 18 20 14 20 -4 0 -1 6 6 14 7 8 17
11 22 8 5 -3 6 0 3 6 -9 14 3 43 14 36 5 -3 9 0 9 5 0 6 -5 11 -11 11 -10 0
29 62 43 68 5 2 6 8 2 13 -5 8 9 13 28 10 5 0 7 2 7 7 -3 19 2 33 10 27 6 -3
15 4 21 15 6 11 15 18 21 15 5 -4 8 -3 7 2 -4 10 38 53 51 53 5 0 16 6 23 13
18 17 118 69 118 61 0 -4 8 0 17 7 14 12 16 12 9 -1 -4 -8 0 -6 8 4 9 11 16
16 16 12 0 -5 6 -3 13 3 8 6 17 8 20 4 4 -3 7 -1 7 6 0 6 6 11 13 9 6 -1 21 2
32 8 11 5 29 9 40 9 11 0 23 4 27 10 5 6 8 4 8 -5 0 -12 2 -12 9 -2 4 8 21 15
37 17 26 3 61 10 74 15 3 1 9 2 14 1 4 -1 14 4 22 10 11 9 14 8 14 -2 0 -12 2
-12 9 0 5 8 18 12 31 8 14 -3 23 0 27 10 5 12 7 12 14 1 6 -9 9 -10 9 -1 0 7
10 13 23 12 32 -1 72 7 87 16 9 6 11 4 5 -5 -6 -9 -4 -11 5 -5 22 13 101 15
94 2 -3 -7 1 -4 9 5 11 14 16 15 27 5 9 -9 11 -9 6 0 -4 8 2 11 21 8 16 -1 27
-8 25 -15 -1 -6 2 -9 8 -5 6 3 8 10 5 15 -3 4 4 10 15 13 10 3 21 0 22 -5 3
-8 10 -8 24 0 14 7 25 7 38 0 16 -9 18 -8 13 5 -5 12 -1 14 21 8 15 -4 43 -4
62 -1 19 3 43 2 52 -2 13 -6 16 -5 13 4 -6 15 71 19 92 5 9 -6 11 -3 6 9 -5
14 -2 16 17 11 13 -3 33 -1 44 5 19 10 19 9 8 -4 -10 -13 -10 -18 -1 -24 7 -4
9 -3 6 3 -6 10 11 23 40 29 7 1 17 -5 22 -13 7 -13 9 -13 14 1 5 12 3 15 -6
10 -6 -4 -9 -3 -4 1 9 10 68 15 62 5 -2 -4 2 -7 10 -7 8 0 12 4 9 8 -7 11 11
20 51 23 20 2 39 7 43 11 4 5 1 5 -7 0 -10 -6 -12 -4 -7 4 6 9 11 9 21 1 10
-8 15 -8 20 0 4 6 14 9 22 5 14 -5 14 -3 2 11 -12 15 -11 16 8 10 13 -4 28 -4
35 0 7 4 28 9 48 11 19 2 40 10 45 17 6 7 18 12 28 10 10 -1 21 4 24 12 3 8
12 14 20 14 8 0 11 5 7 11 -4 8 1 9 16 4 17 -6 21 -4 14 6 -6 10 -3 10 11 -1
10 -8 16 -10 12 -4 -4 7 0 15 9 18 8 3 13 2 10 -2 -2 -4 4 -8 14 -8 14 0 16 3
8 13 -8 11 -7 12 7 7 14 -6 16 -4 10 7 -7 12 -6 12 7 1 13 -10 18 -10 24 -1 5
8 3 9 -6 4 -9 -5 -11 -4 -6 3 4 7 12 12 17 12 6 0 20 11 32 23 12 13 28 22 36
19 9 -3 11 0 6 8 -6 10 -4 12 9 7 10 -4 15 -3 11 3 -3 6 -1 10 5 10 6 0 8 5 5
10 -3 6 0 10 8 10 7 0 24 11 37 25 19 20 26 23 39 12 10 -8 13 -8 8 0 -4 7 4
16 22 24 16 7 27 17 25 21 -5 8 11 12 29 9 5 -1 6 3 2 9 -8 13 20 42 31 32 5
-4 2 1 -6 11 -7 10 -9 17 -4 15 5 -2 23 12 40 29 17 18 34 30 38 26 4 -4 4 0
0 10 -3 10 -1 17 6 17 6 0 8 5 5 10 -3 6 1 10 9 10 9 0 17 5 17 10 1 6 2 13 3
18 1 4 18 24 39 45 20 22 35 43 31 48 -3 5 -1 9 4 9 5 0 20 23 33 50 13 28 28
50 33 50 4 0 2 -8 -5 -17 -11 -15 -11 -16 1 -6 16 15 22 43 9 43 -6 0 -4 6 3
14 7 8 18 11 23 8 6 -3 4 1 -3 10 -11 14 -10 19 9 31 14 10 18 20 13 29 -6 10
-5 11 7 1 12 -10 15 -9 16 5 1 9 4 26 6 37 3 11 6 22 6 24 1 2 9 -3 18 -10 14
-12 14 -10 -2 14 -15 23 -15 26 -2 21 12 -4 15 -1 12 15 -2 12 0 21 5 21 4 0
11 7 14 16 3 8 2 12 -3 9 -5 -3 -3 8 6 25 8 17 16 39 18 48 2 9 4 19 5 22 1 3
2 9 1 13 -1 4 5 10 13 13 8 3 12 12 10 19 -3 7 -1 16 5 19 6 4 8 13 4 21 -3 8
0 15 6 15 6 0 10 3 10 8 -3 19 2 33 11 27 6 -3 7 1 4 9 -3 9 -10 13 -15 10 -5
-3 -9 -3 -9 1 0 3 10 10 23 15 20 8 20 9 2 10 -14 0 -16 3 -7 8 7 5 15 21 18
37 3 15 9 36 15 46 6 12 5 20 -2 25 -9 5 -7 11 5 19 9 7 16 17 15 21 -1 5 0
11 1 14 1 3 3 23 5 45 4 58 4 57 18 49 7 -5 7 -1 -2 10 -13 15 -13 19 0 27 8
5 9 9 4 9 -6 0 -11 9 -11 19 0 13 4 17 11 11 12 -10 12 56 0 68 -5 4 -5 1 0
-7 6 -10 4 -12 -4 -7 -9 6 -9 11 0 22 9 11 9 17 0 28 -9 11 -9 15 1 19 10 4
10 8 -2 16 -13 10 -13 11 0 11 13 0 13 1 0 10 -13 9 -13 10 0 10 13 0 13 2 1
9 -13 8 -13 12 -1 28 14 17 14 17 -6 1 -19 -16 -20 -16 -20 2 0 10 5 16 11 14
5 -3 3 0 -6 8 -9 7 -16 17 -17 21 0 5 -4 12 -8 15 -4 4 -4 2 -1 -4 4 -7 1 -14
-6 -16 -20 -8 -36 2 -30 18 3 8 3 14 0 14 -3 0 -7 -6 -10 -14z m-3662 -3406
c3 -5 -1 -10 -10 -10 -9 0 -13 5 -10 10 3 6 8 10 10 10 2 0 7 -4 10 -10z m215
-650 c0 -5 -2 -10 -4 -10 -3 0 -8 5 -11 10 -3 6 -1 10 4 10 6 0 11 -4 11 -10z
m-565 -1719 c3 -5 2 -12 -3 -15 -5 -3 -9 1 -9 9 0 17 3 19 12 6z m1115 -1221
c0 -5 -5 -10 -11 -10 -5 0 -7 5 -4 10 3 6 8 10 11 10 2 0 4 -4 4 -10z m-900
-200 c0 -5 -5 -10 -11 -10 -5 0 -7 5 -4 10 3 6 8 10 11 10 2 0 4 -4 4 -10z
m1177 -635 c0 -8 -4 -12 -9 -9 -5 3 -6 10 -3 15 9 13 12 11 12 -6z m-860 -90
c0 -8 -4 -12 -9 -9 -5 3 -6 10 -3 15 9 13 12 11 12 -6z m508 -314 c-9 -8 -36
-10 -30 -2 2 4 11 8 20 8 8 0 13 -3 10 -6z m225 5 c0 -2 -8 -10 -17 -17 -16
-13 -17 -12 -4 4 13 16 21 21 21 13z m46 -52 c1 -9 0 -13 -4 -10 -3 4 -7 14
-8 22 -1 9 0 13 4 10 3 -4 7 -14 8 -22z m494 10 c0 -8 -19 -13 -24 -6 -3 5 1
9 9 9 8 0 15 -2 15 -3z m191 -41 c13 -16 12 -17 -3 -4 -10 7 -18 15 -18 17 0
8 8 3 21 -13z m-564 -38 c0 -8 -4 -12 -9 -9 -5 3 -6 10 -3 15 9 13 12 11 12
-6z m443 -69 c0 -2 -8 -10 -17 -17 -16 -13 -17 -12 -4 4 13 16 21 21 21 13z
m-920 -32 c0 -8 -19 -13 -24 -6 -3 5 1 9 9 9 8 0 15 -2 15 -3z m686 -66 c3 -4
-1 -5 -10 -4 -8 1 -18 5 -22 8 -3 4 1 5 10 4 8 -1 18 -5 22 -8z m-526 -54 c0
-8 -19 -13 -24 -6 -3 5 1 9 9 9 8 0 15 -2 15 -3z"/>
<path d="M9542 9139 c10 -5 15 -17 12 -27 -5 -14 -4 -14 4 -2 12 16 -2 40 -22
40 -6 0 -3 -5 6 -11z"/>
<path d="M9596 9063 c6 -4 14 -15 17 -23 5 -11 6 -9 4 4 -1 11 -9 21 -17 23
-10 3 -11 2 -4 -4z"/>
<path d="M9630 8969 c0 -5 5 -7 10 -4 6 3 10 8 10 11 0 2 -4 4 -10 4 -5 0 -10
-5 -10 -11z"/>
<path d="M1873 8465 c0 -8 4 -12 9 -9 5 3 6 10 3 15 -9 13 -12 11 -12 -6z"/>
<path d="M7475 7630 c-3 -5 -1 -10 4 -10 6 0 11 5 11 10 0 6 -2 10 -4 10 -3 0
-8 -4 -11 -10z"/>
<path d="M8680 7609 c0 -19 -44 -62 -53 -52 -4 3 -7 1 -7 -5 0 -6 -8 -9 -17
-6 -15 5 -15 4 -3 -4 8 -6 18 -8 22 -6 4 3 8 0 8 -5 0 -6 -7 -11 -16 -11 -10
0 -14 -5 -10 -16 3 -8 2 -12 -4 -9 -9 6 -14 -11 -11 -45 0 -10 -1 -11 -5 -2
-3 6 -13 12 -22 11 -11 0 -12 -2 -4 -6 15 -6 16 -33 2 -33 -6 0 -10 -6 -8 -14
2 -8 -6 -22 -17 -31 -13 -10 -15 -14 -5 -13 23 4 21 -48 -4 -80 -18 -23 -18
-25 -2 -12 18 14 19 14 9 -5 -6 -11 -8 -26 -5 -34 3 -10 0 -12 -12 -8 -14 5
-15 3 -6 -13 8 -15 6 -21 -7 -29 -13 -8 -14 -10 -4 -11 10 0 7 -8 -10 -27 -13
-16 -17 -22 -9 -15 19 16 35 16 21 -1 -6 -8 -8 -17 -4 -20 3 -4 0 -7 -8 -7
-11 0 -11 -2 1 -10 9 -6 10 -10 3 -10 -12 0 -10 -30 3 -53 6 -8 3 -8 -9 1 -14
12 -16 11 -14 -7 0 -11 4 -18 8 -15 4 2 11 -1 15 -7 5 -8 3 -9 -6 -4 -10 6
-12 4 -6 -10 5 -15 4 -16 -9 -5 -20 17 -19 6 1 -15 13 -12 14 -19 4 -30 -10
-12 -10 -15 1 -15 11 0 11 -2 -1 -10 -8 -5 -10 -10 -4 -10 5 0 10 -11 10 -24
0 -14 -4 -22 -8 -20 -4 3 -8 0 -8 -5 0 -6 5 -11 10 -11 6 0 10 -5 10 -11 0 -5
-4 -8 -8 -5 -5 3 -9 -1 -9 -9 0 -8 4 -12 9 -9 4 3 6 -5 4 -18 -2 -13 1 -31 6
-42 7 -12 7 -16 0 -12 -6 3 -14 1 -18 -5 -4 -7 -3 -9 3 -6 16 10 34 -16 23
-33 -5 -8 -2 -23 8 -39 16 -25 16 -26 -3 -11 -17 13 -18 13 -10 0 4 -8 15 -23
23 -33 15 -16 14 -17 -4 -11 -16 7 -17 5 -7 -8 7 -8 10 -18 6 -21 -3 -4 0 -7
8 -7 11 0 11 -2 -1 -10 -10 -6 -11 -10 -2 -10 6 0 12 -5 12 -11 0 -5 -4 -8 -8
-5 -5 3 -9 -1 -9 -9 0 -8 4 -12 9 -9 4 3 8 0 8 -5 0 -6 -6 -11 -12 -11 -9 0
-8 -3 2 -9 8 -6 17 -8 20 -6 4 2 7 -2 7 -9 0 -8 -7 -12 -16 -9 -13 4 -13 2 2
-10 22 -18 22 -28 0 -20 -15 6 -16 5 -3 -9 8 -9 18 -14 21 -12 3 1 3 -11 1
-28 -4 -24 -2 -29 9 -23 11 7 10 4 -1 -10 -8 -10 -10 -16 -3 -12 6 4 14 3 18
-3 3 -5 -1 -10 -10 -10 -9 0 -13 -5 -10 -10 4 -6 10 -8 15 -5 5 3 12 0 16 -6
4 -8 3 -9 -4 -5 -7 4 -12 2 -12 -3 0 -6 5 -11 10 -11 6 0 10 -5 10 -11 0 -5
-4 -8 -9 -4 -5 3 -13 0 -17 -6 -4 -8 -3 -9 5 -5 13 9 31 -32 23 -53 -3 -9 -1
-12 6 -7 7 4 12 1 12 -9 0 -10 -5 -14 -12 -10 -7 4 -3 -2 10 -13 22 -20 31
-39 13 -27 -5 3 -13 0 -17 -6 -4 -7 -3 -9 3 -6 15 9 48 -35 44 -61 -1 -14 6
-31 20 -43 12 -10 17 -19 11 -19 -7 0 -12 -5 -12 -11 0 -5 4 -8 9 -5 5 3 12
-1 15 -10 4 -10 2 -13 -7 -9 -6 4 -5 1 3 -7 8 -7 16 -20 18 -27 2 -8 13 -23
24 -33 12 -10 17 -18 12 -18 -6 0 -15 5 -20 10 -7 7 -11 6 -11 -4 0 -8 5 -14
11 -13 6 1 10 -4 8 -11 -2 -10 4 -12 20 -7 20 5 20 4 6 -5 -15 -9 -16 -14 -5
-30 6 -11 19 -20 27 -21 10 0 8 -3 -5 -9 -18 -8 -18 -9 -2 -9 10 -1 17 -7 16
-13 -3 -29 2 -40 16 -35 8 4 17 1 21 -5 4 -7 3 -8 -4 -4 -7 4 -12 1 -12 -9 0
-9 5 -13 10 -10 6 3 10 2 10 -4 0 -5 -6 -12 -12 -15 -7 -4 -3 -4 8 -2 18 3 22
-1 20 -25 -1 -15 2 -26 6 -23 16 10 29 -7 17 -22 -9 -11 -8 -14 4 -14 9 0 25
-13 36 -28 16 -23 18 -32 8 -42 -9 -10 -9 -11 1 -5 8 4 13 2 11 -6 -3 -29 2
-41 16 -36 8 4 17 1 21 -5 4 -7 3 -8 -4 -4 -7 4 -12 3 -12 -3 0 -5 5 -11 11
-13 6 -2 12 -16 12 -31 0 -15 3 -27 8 -27 5 0 8 3 8 8 -3 20 2 32 12 26 8 -4
7 -9 -2 -15 -8 -5 -10 -9 -5 -9 5 0 3 -7 -4 -15 -11 -13 -10 -14 4 -9 14 5 17
2 14 -17 -2 -17 2 -25 17 -27 19 -4 38 -25 41 -47 0 -5 2 -16 2 -23 1 -8 7
-10 15 -6 6 4 9 4 5 -1 -4 -4 -2 -15 5 -23 10 -13 9 -14 -13 -3 -25 13 -25 13
3 -13 15 -15 27 -36 27 -47 0 -17 3 -18 23 -9 20 10 19 9 -3 -9 -25 -20 -25
-20 -6 -38 19 -17 19 -17 7 0 -8 9 -11 20 -7 24 3 3 6 1 6 -6 0 -7 4 -10 9 -7
10 7 9 -13 -2 -31 -4 -6 -2 -15 4 -19 8 -5 9 -3 4 7 -8 12 -6 12 8 0 18 -15
23 -26 7 -16 -5 3 -10 1 -10 -4 0 -6 5 -11 11 -11 8 0 9 -4 0 -13 -15 -19 -1
-30 17 -14 13 10 15 9 10 -4 -4 -9 -1 -22 5 -29 10 -10 7 -10 -12 0 l-23 12
18 -25 c15 -20 22 -23 34 -14 13 11 13 10 0 -7 -18 -23 -21 -44 -8 -53 7 -4 8
-1 3 7 -6 9 -4 11 5 5 10 -6 9 -11 -6 -23 -18 -14 -18 -14 0 -8 14 5 17 2 12
-9 -3 -8 -1 -15 5 -15 6 0 7 -5 4 -10 -4 -6 -12 -7 -18 -3 -7 3 -4 -3 6 -14
12 -14 15 -23 8 -28 -6 -3 -11 -11 -11 -16 0 -6 5 -7 12 -3 6 4 8 3 4 -4 -3
-5 -3 -12 1 -15 5 -2 2 -2 -4 -1 -7 2 -13 -2 -13 -9 0 -7 6 -19 13 -26 10 -10
8 -11 -7 -5 -16 6 -17 5 -6 -16 11 -20 10 -22 -5 -16 -14 5 -15 4 -7 -7 8 -10
6 -16 -9 -25 -17 -11 -18 -16 -8 -29 11 -13 10 -17 -6 -29 -17 -13 -14 -18 10
-15 6 1 -2 -10 -17 -23 -15 -13 -24 -27 -20 -32 4 -4 -2 -4 -12 0 -15 5 -17 4
-7 -7 9 -11 8 -17 -2 -26 -8 -6 -17 -8 -20 -4 -4 3 -7 1 -7 -6 0 -7 -5 -9 -12
-5 -7 4 -9 3 -5 -1 4 -5 -3 -15 -15 -23 -13 -7 -15 -11 -6 -8 10 3 20 1 23 -5
4 -5 3 -9 -2 -8 -19 3 -33 -2 -33 -12 0 -5 5 -7 12 -3 7 5 8 3 4 -5 -5 -7 -15
-10 -23 -6 -14 5 -14 3 -2 -11 19 -23 19 -53 0 -46 -13 5 -13 3 2 -12 9 -10
15 -22 12 -27 -4 -5 1 -6 10 -3 10 4 14 1 12 -7 -2 -8 -2 -11 0 -6 3 4 11 7
19 7 9 0 12 -4 9 -10 -10 -16 1 -11 16 7 12 14 12 16 0 8 -9 -5 -12 -4 -7 3 4
6 13 9 21 5 10 -3 15 1 15 12 0 9 5 13 10 10 6 -4 8 -10 5 -15 -3 -5 -1 -11 4
-14 5 -4 7 7 4 25 -4 27 -3 29 10 18 8 -8 12 -18 9 -24 -3 -6 -1 -6 4 -2 5 5
9 14 9 20 1 7 6 11 11 10 6 -1 11 3 12 10 4 47 12 55 58 59 7 1 11 12 9 25 -2
18 1 21 11 13 9 -8 14 -6 19 10 4 12 11 17 18 13 7 -4 5 2 -3 12 -9 11 -10 16
-3 11 7 -4 23 0 35 9 l23 17 -23 -7 c-23 -7 -23 -6 -5 14 19 23 28 28 17 9 -4
-7 -3 -8 5 -4 6 4 9 12 6 17 -8 11 19 51 28 42 4 -3 7 -3 7 2 0 4 -8 14 -17
21 -16 12 -16 13 5 9 20 -4 22 -2 11 11 -10 12 -9 13 4 9 18 -8 32 11 16 21
-8 5 -9 3 -4 -6 5 -9 4 -11 -4 -6 -15 10 -3 29 14 22 9 -3 12 5 11 29 -1 28 1
32 13 22 12 -10 13 -9 2 10 -9 19 -9 22 3 17 8 -3 17 0 22 7 4 7 3 10 -2 7 -5
-3 -16 1 -24 10 -13 14 -13 15 1 10 8 -3 24 1 34 9 19 14 19 15 -5 9 -23 -7
-24 -6 -7 7 14 11 15 16 5 20 -9 4 -10 6 -1 6 7 1 10 8 7 16 -4 8 -1 15 6 15
7 0 6 6 -4 16 -20 19 -21 31 -2 15 11 -9 13 -6 11 14 -2 14 2 25 8 25 7 0 5 4
-3 10 -17 11 -23 50 -7 50 6 0 7 3 4 6 -4 4 -14 1 -24 -7 -14 -12 -15 -12 -9
0 12 19 15 72 5 65 -5 -3 -10 3 -11 13 -2 33 -4 38 -13 53 -25 39 -34 61 -22
53 9 -5 9 -3 0 9 -7 8 -9 19 -5 23 4 5 1 5 -5 1 -9 -5 -13 0 -13 13 0 12 -4
21 -10 21 -5 0 -7 6 -4 14 3 8 0 17 -7 22 -8 5 -10 3 -4 -6 5 -9 4 -11 -4 -6
-9 6 -9 11 -1 21 8 9 8 15 0 20 -6 3 -8 10 -5 15 3 5 1 11 -5 15 -6 4 -7 11
-4 17 4 7 2 8 -5 4 -9 -6 -9 -11 0 -22 8 -10 8 -14 0 -14 -11 0 -15 13 -11 39
1 9 -4 12 -14 8 -8 -3 -18 -1 -22 5 -4 7 -3 8 4 4 8 -5 12 2 12 21 0 22 -2 25
-10 13 -8 -12 -10 -10 -10 8 0 14 -4 21 -11 16 -7 -4 -7 1 1 16 7 13 8 20 2
16 -6 -3 -14 -1 -18 5 -4 8 -9 7 -16 -2 -8 -11 -9 -11 -5 1 2 8 9 15 15 15 5
0 14 4 19 8 4 5 3 8 -2 7 -6 -1 -19 -2 -30 -1 -17 1 -18 3 -5 11 13 9 13 10 0
10 -13 0 -13 1 0 11 12 9 11 10 -6 6 -13 -3 -21 1 -21 9 0 7 4 11 9 8 4 -3 5
2 2 11 -4 8 -18 23 -33 31 -14 8 -18 13 -8 10 15 -5 16 -2 7 14 -6 11 -13 20
-16 20 -3 0 -2 -4 1 -10 4 -6 -1 -7 -11 -3 -11 4 -13 8 -6 11 7 2 12 8 12 13
0 6 -6 7 -12 3 -8 -5 -7 0 2 11 8 10 10 16 5 13 -6 -4 -17 -3 -25 3 -13 7 -13
9 0 9 12 1 11 3 -3 11 -9 6 -15 14 -12 20 4 5 1 9 -4 9 -6 0 -11 5 -11 11 0 7
-8 18 -17 26 -12 10 -13 12 -3 8 9 -4 8 -1 -3 8 -14 11 -15 16 -5 20 10 4 10
6 1 6 -7 1 -13 8 -13 16 0 8 -6 15 -14 15 -8 0 -17 7 -20 16 -5 14 -4 15 7 5
11 -9 17 -7 28 6 11 15 11 16 0 6 -19 -16 -44 6 -28 25 8 10 5 14 -11 19 -15
4 -22 13 -22 30 0 14 -4 22 -10 18 -7 -4 -9 3 -6 19 3 16 -1 29 -10 34 -8 5
-16 18 -17 29 -1 14 -6 19 -17 15 -12 -5 -11 0 4 23 l19 30 -23 -20 -23 -20
13 24 c9 19 9 22 0 16 -10 -6 -12 -1 -8 18 3 17 1 24 -8 20 -6 -2 -15 1 -20 8
-5 8 -3 10 7 5 8 -4 6 -1 -3 7 -12 9 -14 17 -8 25 6 7 7 10 4 7 -11 -8 -33 28
-34 53 0 15 -4 21 -12 16 -7 -5 -8 -3 -2 7 12 20 14 40 3 33 -5 -3 -6 -11 -2
-17 4 -7 0 -6 -10 2 -18 15 -23 26 -7 16 6 -3 10 -1 10 4 0 6 -4 11 -10 11 -5
0 -10 5 -10 11 0 5 6 7 13 3 12 -8 -5 17 -31 45 -9 9 -10 17 -2 26 8 10 8 15
-1 21 -8 5 -9 3 -4 -6 5 -9 4 -11 -4 -6 -9 6 -9 11 -1 21 9 11 7 17 -9 27 -12
7 -21 16 -21 21 0 4 5 5 10 2 6 -3 10 -1 10 4 0 10 -14 15 -33 12 -5 -1 -6 3
-2 9 3 6 10 8 15 5 5 -3 12 0 16 6 4 8 3 9 -4 5 -7 -4 -12 -2 -12 4 0 6 -5 8
-12 4 -8 -5 -7 0 2 11 9 11 10 16 3 11 -7 -4 -13 -2 -13 3 0 6 5 11 12 11 6 0
8 3 5 6 -4 4 -14 1 -24 -7 -13 -11 -15 -11 -9 -1 5 8 1 21 -10 33 -10 11 -14
20 -9 19 24 -5 27 1 9 16 -10 8 -13 13 -6 9 6 -3 12 -1 12 4 0 6 -4 11 -10 11
-5 0 -10 5 -10 11 0 5 6 7 13 3 8 -5 8 -3 -2 9 -7 9 -17 15 -21 12 -10 -6 -4
50 6 68 6 8 3 8 -8 -1 -10 -8 -19 -9 -22 -3 -4 5 2 14 11 20 17 10 17 10 1 11
-10 0 -18 5 -18 11 0 5 4 8 9 5 5 -3 11 1 15 9 6 17 -9 29 -26 20 -7 -4 -5 0
5 8 10 8 14 17 8 18 -5 2 -12 24 -15 47 -5 40 -4 43 12 31 14 -11 15 -11 5 1
-7 8 -13 27 -13 43 0 20 -4 26 -12 21 -7 -4 -5 2 6 14 17 19 17 22 2 28 -9 3
-13 10 -10 16 3 5 13 4 22 -4 15 -11 15 -11 4 4 -7 9 -9 18 -5 20 4 3 2 3 -5
1 -16 -4 -6 38 12 49 6 5 7 8 1 8 -5 0 -15 11 -21 25 -9 19 -9 27 1 35 6 5 14
8 16 5 3 -2 5 5 5 16 0 18 -2 19 -12 4 -8 -10 -14 -12 -19 -6 -3 6 -1 11 4 11
6 0 11 7 11 16 0 8 4 13 8 10 11 -7 9 35 -2 53 -7 11 -5 13 10 8 18 -7 18 -6
2 7 -18 14 -25 32 -9 22 13 -8 8 19 -7 36 -12 15 -7 28 12 28 6 0 5 -4 -2 -9
-11 -7 -11 -9 1 -14 10 -4 14 0 12 11 -2 9 -4 20 -4 25 -1 4 -6 6 -12 5 -6 -2
-14 4 -16 12 -4 13 -3 13 6 0 8 -11 11 -12 11 -2 0 7 6 10 13 7 6 -4 3 1 -7 9
-11 9 -14 16 -8 16 7 0 12 7 12 16 0 9 -5 12 -12 8 -10 -5 -10 -3 0 7 11 12
14 12 22 -1 14 -21 12 -7 -2 26 -7 16 -20 29 -28 29 -8 0 -18 4 -22 10 -5 6
-8 4 -8 -6z m41 -26 c12 -16 12 -17 -2 -6 -9 7 -20 9 -24 5 -5 -4 -5 -1 -1 6
9 16 11 15 27 -5z m-4 -248 c0 -8 -4 -12 -9 -9 -5 3 -6 10 -3 15 9 13 12 11
12 -6z m363 -1389 c0 -2 -7 -7 -16 -10 -8 -3 -12 -2 -9 4 6 10 25 14 25 6z
m-303 -123 c0 -9 -4 -10 -14 -2 -7 6 -13 12 -13 14 0 1 6 2 13 2 8 0 14 -6 14
-14z m390 -208 c0 -8 -4 -12 -9 -9 -5 3 -6 10 -3 15 9 13 12 11 12 -6z m-217
-105 c0 -5 -5 -10 -11 -10 -5 0 -7 5 -4 10 3 6 8 10 11 10 2 0 4 -4 4 -10z
m80 -145 c0 -8 -4 -15 -10 -15 -5 0 -7 7 -4 15 4 8 8 15 10 15 2 0 4 -7 4 -15z
m444 -213 c3 -5 -1 -9 -9 -9 -8 0 -12 4 -9 9 3 4 7 8 9 8 2 0 6 -4 9 -8z
m-269 -492 c3 -5 -1 -10 -10 -10 -9 0 -13 5 -10 10 3 6 8 10 10 10 2 0 7 -4
10 -10z m15 -265 c0 -2 -6 -8 -13 -14 -10 -8 -14 -7 -14 2 0 8 6 14 14 14 7 0
13 -1 13 -2z"/>
<path d="M8646 7593 c2 -6 -2 -14 -9 -17 -8 -3 -8 -5 -1 -5 6 -1 18 7 25 16 8
9 9 14 2 10 -6 -4 -13 -4 -16 0 -2 5 -2 3 -1 -4z"/>
<path d="M7360 7540 c-9 -6 -10 -10 -3 -10 6 0 15 5 18 10 8 12 4 12 -15 0z"/>
<path d="M1356 7492 c-3 -5 1 -9 9 -9 8 0 12 4 9 9 -3 4 -7 8 -9 8 -2 0 -6 -4
-9 -8z"/>
<path d="M8529 7338 c-5 -18 -6 -38 -1 -34 7 8 12 36 6 36 -2 0 -4 -1 -5 -2z"/>
<path d="M6076 7228 c3 -5 10 -6 15 -3 13 9 11 12 -6 12 -8 0 -12 -4 -9 -9z"/>
<path d="M8700 7236 c0 -2 7 -6 15 -10 8 -3 15 -1 15 4 0 6 -7 10 -15 10 -8 0
-15 -2 -15 -4z"/>
<path d="M1235 7200 c-3 -6 1 -7 9 -4 18 7 21 14 7 14 -6 0 -13 -4 -16 -10z"/>
<path d="M9166 7102 c-3 -5 1 -9 9 -9 8 0 15 4 15 9 0 4 -4 8 -9 8 -6 0 -12
-4 -15 -8z"/>
<path d="M9215 7090 c-3 -6 1 -7 9 -4 18 7 21 14 7 14 -6 0 -13 -4 -16 -10z"/>
<path d="M8740 6770 c0 -5 5 -10 11 -10 5 0 7 5 4 10 -3 6 -8 10 -11 10 -2 0
-4 -4 -4 -10z"/>
<path d="M1785 6710 c-3 -6 1 -7 9 -4 18 7 21 14 7 14 -6 0 -13 -4 -16 -10z"/>
<path d="M8775 6650 c3 -5 8 -10 11 -10 2 0 4 5 4 10 0 6 -5 10 -11 10 -5 0
-7 -4 -4 -10z"/>
<path d="M8921 6284 c0 -11 3 -14 6 -6 3 7 2 16 -1 19 -3 4 -6 -2 -5 -13z"/>
<path d="M4476 6185 c-9 -26 -7 -32 5 -12 6 10 9 21 6 23 -2 3 -7 -2 -11 -11z"/>
<path d="M793 5655 c0 -8 4 -12 9 -9 5 3 6 10 3 15 -9 13 -12 11 -12 -6z"/>
<path d="M778 5623 c7 -3 16 -2 19 1 4 3 -2 6 -13 5 -11 0 -14 -3 -6 -6z"/>
<path d="M8886 5566 c3 -8 12 -17 20 -20 11 -4 12 -2 1 14 -14 23 -29 27 -21
6z"/>
<path d="M1290 5409 c0 -5 5 -7 10 -4 6 3 10 8 10 11 0 2 -4 4 -10 4 -5 0 -10
-5 -10 -11z"/>
<path d="M1273 5365 c0 -8 4 -12 9 -9 5 3 6 10 3 15 -9 13 -12 11 -12 -6z"/>
<path d="M9040 5310 c0 -5 5 -10 11 -10 5 0 7 5 4 10 -3 6 -8 10 -11 10 -2 0
-4 -4 -4 -10z"/>
<path d="M4627 5229 c7 -7 15 -10 18 -7 3 3 -2 9 -12 12 -14 6 -15 5 -6 -5z"/>
<path d="M9086 5197 c3 -10 9 -15 12 -12 3 3 0 11 -7 18 -10 9 -11 8 -5 -6z"/>
<path d="M665 5049 c-4 -6 -4 -13 -1 -16 3 -4 6 -1 6 6 0 7 5 9 12 5 7 -4 8
-3 4 4 -9 15 -13 15 -21 1z"/>
<path d="M1129 4843 c-13 -16 -12 -17 4 -4 9 7 17 15 17 17 0 8 -8 3 -21 -13z"/>
<path d="M610 4630 c0 -5 5 -10 11 -10 5 0 7 5 4 10 -3 6 -8 10 -11 10 -2 0
-4 -4 -4 -10z"/>
<path d="M1050 4595 c-7 -9 -8 -15 -2 -15 5 0 12 7 16 15 3 8 4 15 2 15 -2 0
-9 -7 -16 -15z"/>
<path d="M9106 4518 c3 -5 10 -6 15 -3 13 9 11 12 -6 12 -8 0 -12 -4 -9 -9z"/>
<path d="M9248 4408 c2 -10 6 -18 7 -18 1 0 5 8 7 18 3 11 0 19 -7 19 -7 0
-10 -8 -7 -19z"/>
<path d="M8564 4413 c5 -9 1 -13 -13 -13 -11 0 -23 -5 -27 -12 -5 -7 -3 -8 6
-3 8 5 11 3 8 -6 -3 -8 -14 -13 -24 -11 -11 2 -15 -1 -9 -5 16 -13 41 -47 28
-40 -6 4 -18 4 -27 1 -15 -6 -15 -8 1 -21 10 -8 12 -11 4 -7 -10 5 -11 1 -7
-14 4 -11 2 -23 -4 -27 -8 -5 -8 -11 0 -20 6 -8 10 -22 8 -33 -2 -10 3 -26 11
-35 11 -14 11 -20 1 -32 -10 -12 -10 -15 1 -15 11 0 11 -2 -1 -10 -8 -5 -10
-10 -4 -10 19 0 24 -38 5 -43 -13 -4 -13 -5 -1 -6 8 0 21 -10 27 -21 11 -16
10 -18 -2 -14 -8 4 -15 1 -15 -5 0 -10 14 -15 33 -12 4 0 7 -3 7 -9 0 -5 -8
-10 -17 -10 -16 -1 -16 -2 1 -15 11 -8 16 -15 11 -15 -5 0 -4 -5 2 -11 8 -8 8
-20 3 -35 -8 -19 -6 -24 6 -24 11 0 15 -9 14 -27 -3 -46 -1 -53 18 -54 14 0
14 -2 -3 -9 -11 -5 -14 -9 -6 -9 11 -1 11 -4 0 -18 -10 -11 -10 -14 -1 -9 8 5
12 -2 12 -24 0 -22 4 -29 13 -24 6 4 4 -2 -6 -13 -13 -14 -15 -23 -7 -28 8 -5
8 -11 1 -19 -7 -9 -7 -16 2 -25 9 -10 9 -15 1 -18 -7 -2 -10 -14 -7 -26 4 -18
3 -20 -7 -7 -10 12 -11 11 -7 -8 3 -12 1 -20 -4 -16 -5 3 -9 0 -9 -5 0 -6 -6
-10 -12 -8 -7 1 -12 -4 -10 -11 1 -8 -7 -16 -18 -19 -16 -4 -18 -8 -9 -20 10
-11 9 -13 -2 -11 -8 2 -17 10 -21 18 -5 12 -7 11 -7 -3 -1 -11 -5 -15 -13 -11
-7 5 -9 2 -6 -8 5 -11 0 -14 -19 -10 -16 3 -24 1 -20 -5 3 -5 0 -10 -8 -10 -8
0 -15 5 -15 10 0 6 -3 7 -6 4 -4 -4 -1 -13 6 -22 11 -13 10 -14 -3 -10 -17 7
-35 -14 -20 -24 5 -3 15 -15 22 -26 10 -16 11 -16 7 -2 -5 14 -2 16 13 8 10
-6 22 -7 26 -3 5 4 5 1 1 -6 -4 -7 -13 -9 -19 -6 -7 4 -8 3 -4 -2 4 -4 24 -7
43 -5 26 2 40 -3 55 -20 10 -12 19 -17 19 -11 0 6 -4 14 -10 17 -5 3 -10 14
-10 23 0 12 4 10 13 -8 8 -14 20 -24 27 -22 11 3 11 0 -1 -14 -12 -15 -12 -16
7 -10 21 6 22 5 25 -49 1 -14 5 -25 9 -25 4 0 11 -7 14 -16 6 -15 4 -15 -11
-3 -9 8 -14 9 -10 2 4 -6 9 -25 11 -42 3 -25 1 -29 -9 -21 -10 9 -13 7 -11 -6
2 -10 -6 -26 -16 -36 -10 -10 -18 -27 -18 -38 0 -11 -5 -20 -11 -20 -5 0 -7 5
-3 12 4 7 3 8 -4 4 -7 -4 -12 -14 -12 -22 0 -8 -8 -14 -18 -14 -10 0 -25 -9
-35 -20 -9 -11 -12 -20 -7 -20 6 0 10 -5 10 -12 0 -6 -3 -8 -7 -5 -9 10 -32
-24 -33 -48 0 -17 -2 -17 -10 -5 -5 8 -10 10 -10 5 0 -6 6 -17 13 -24 10 -11
9 -13 -4 -8 -9 3 -16 0 -16 -9 0 -7 4 -11 9 -8 15 10 8 -9 -9 -23 -10 -8 -12
-12 -5 -8 6 3 12 0 12 -7 0 -10 3 -9 11 2 9 13 10 13 6 0 -2 -8 -9 -15 -15
-15 -5 0 -14 -3 -18 -7 -4 -5 -1 -8 6 -8 11 0 11 -3 2 -12 -18 -18 -14 -32 5
-17 11 10 14 10 9 2 -9 -16 -18 -53 -18 -76 1 -9 -4 -15 -10 -11 -6 4 -5 -3 2
-16 9 -17 9 -25 -1 -34 -9 -8 -10 -8 -4 4 6 12 5 12 -5 3 -10 -9 -10 -15 4
-28 18 -19 21 -35 5 -35 -5 0 -7 6 -3 13 4 6 3 8 -2 4 -10 -10 -14 -58 -3 -52
4 3 9 -2 12 -10 4 -10 1 -12 -11 -8 -14 6 -15 4 -4 -9 10 -13 10 -18 1 -24 -8
-5 -10 -3 -5 7 4 8 1 5 -8 -5 -8 -10 -13 -22 -11 -27 3 -4 1 -10 -4 -13 -5 -3
-7 -16 -3 -28 4 -16 2 -19 -8 -13 -8 5 -11 4 -6 -3 3 -6 1 -14 -4 -17 -8 -5
-5 -14 6 -26 17 -19 17 -20 0 -13 -15 6 -17 3 -11 -16 5 -17 4 -21 -6 -15 -9
6 -11 2 -7 -13 5 -18 3 -20 -11 -13 -14 8 -17 5 -15 -20 1 -16 -3 -32 -9 -36
-6 -3 -7 -1 -3 5 4 7 2 12 -4 12 -6 0 -8 5 -4 12 4 7 3 8 -4 4 -6 -4 -8 -14
-5 -23 4 -11 3 -14 -5 -9 -8 4 -12 0 -12 -11 0 -15 -2 -16 -10 -3 -8 13 -10
12 -10 -3 0 -10 -4 -15 -10 -12 -5 3 -10 1 -10 -6 0 -7 -3 -9 -6 -6 -11 11
-45 -13 -37 -26 4 -7 -2 -5 -12 3 -10 8 -16 10 -12 3 4 -6 3 -14 -3 -18 -5 -3
-10 0 -10 7 0 9 -3 9 -8 2 -7 -10 -46 -28 -48 -22 0 2 -8 -3 -17 -11 -14 -11
-17 -11 -17 0 0 11 -2 11 -9 0 -11 -16 -51 -23 -51 -8 0 5 -7 3 -17 -4 -13
-11 -17 -11 -20 -1 -3 6 -9 12 -14 12 -6 0 -8 -4 -5 -8 2 -4 -4 -8 -15 -8 -10
0 -19 3 -19 7 0 14 -30 2 -45 -17 -14 -18 -14 -18 -9 2 3 12 0 25 -7 29 -8 5
-10 4 -5 -3 7 -12 -5 -16 -33 -13 -7 2 -10 -2 -6 -8 3 -7 0 -8 -9 -5 -9 3 -13
11 -9 18 3 6 1 6 -8 -2 -7 -6 -21 -12 -30 -12 -10 0 -20 6 -22 13 -3 7 -6 4
-6 -7 -1 -16 -3 -17 -18 -5 -14 12 -16 12 -9 0 6 -9 5 -12 -5 -9 -8 3 -13 12
-11 19 2 8 -8 3 -23 -11 -19 -18 -24 -20 -19 -7 5 13 2 16 -12 10 -11 -4 -15
-3 -10 5 3 6 1 14 -5 18 -7 4 -9 3 -6 -3 4 -6 0 -13 -8 -17 -8 -3 -15 0 -15 7
0 7 -3 8 -8 2 -4 -5 -13 -11 -21 -13 -11 -2 -12 0 -3 10 8 11 6 13 -14 13 -14
-1 -30 -8 -35 -16 -6 -10 -9 -10 -9 -1 0 7 -11 11 -28 10 -15 -1 -32 1 -38 4
-5 4 -16 3 -24 -2 -10 -6 -21 -3 -34 8 -11 9 -16 12 -13 6 4 -7 -3 -11 -18
-11 -16 0 -22 4 -18 11 5 8 3 8 -8 0 -20 -16 -49 -13 -49 5 0 11 -3 11 -16 -5
-8 -10 -13 -13 -9 -6 4 8 -4 12 -27 13 -18 1 -36 1 -40 0 -5 0 -8 4 -8 11 0 9
-3 9 -12 0 -15 -15 -32 -16 -23 -2 3 6 -3 10 -14 10 -12 0 -21 6 -21 13 0 7
-3 8 -8 2 -4 -5 -15 -11 -25 -11 -15 -2 -16 1 -5 14 11 13 10 14 -9 4 -18 -10
-24 -9 -32 5 -9 16 -10 15 -11 -6 l0 -23 -21 23 c-11 13 -18 19 -15 13 3 -7
-4 -11 -19 -11 -14 0 -22 4 -18 10 4 6 1 7 -8 1 -20 -12 -39 -14 -39 -3 0 5
-5 9 -11 9 -5 0 -8 -4 -5 -8 2 -4 -4 -8 -15 -8 -10 0 -19 3 -19 6 0 3 -8 6
-17 7 -10 1 -37 3 -60 4 -24 2 -43 7 -43 11 0 11 -23 5 -32 -7 -5 -6 -8 -5 -8
4 0 7 -6 11 -15 7 -8 -3 -15 -1 -15 4 0 6 -5 10 -11 10 -5 0 -7 -6 -4 -12 4
-7 0 -6 -7 3 -10 12 -19 14 -37 7 -21 -7 -23 -6 -18 14 5 20 4 21 -6 7 -10
-13 -14 -14 -25 -3 -6 7 -21 11 -32 9 -11 -2 -20 1 -20 7 0 7 -7 3 -15 -8 -11
-13 -13 -14 -9 -3 4 14 -2 16 -36 13 -28 -2 -39 0 -34 8 5 7 3 8 -7 2 -18 -11
-110 -14 -103 -3 8 13 -10 11 -24 -3 -7 -7 -12 -8 -12 -2 0 6 -7 11 -15 12
-59 5 -89 2 -96 -9 -7 -11 -9 -11 -9 -1 0 7 -5 10 -10 7 -6 -4 -7 -12 -3 -18
4 -7 -2 -5 -12 3 -17 14 -18 14 -5 -10 12 -23 12 -24 -3 -12 -14 12 -15 11 -7
-16 4 -17 5 -34 2 -38 -4 -4 1 -4 10 -1 10 3 20 1 24 -5 4 -6 3 -8 -4 -4 -6 3
-14 2 -17 -4 -4 -6 -3 -10 2 -9 4 1 21 1 36 0 20 -1 26 -5 21 -13 -5 -9 -2 -9
9 1 12 10 17 10 17 1 0 -6 6 -10 13 -7 6 2 24 -2 38 -9 15 -8 31 -9 39 -4 9 5
19 5 27 -2 10 -8 13 -7 13 3 0 12 2 12 9 1 5 -8 28 -15 55 -15 25 -1 46 -6 46
-12 0 -5 5 -3 10 5 5 8 10 10 10 4 0 -5 16 -10 36 -11 20 -1 40 -7 45 -15 6
-10 9 -10 9 0 0 6 7 12 16 12 8 0 13 -4 10 -8 -2 -4 4 -9 15 -9 11 -1 17 3 13
8 -3 5 11 0 31 -11 20 -11 34 -16 31 -11 -4 5 -2 12 4 16 5 3 10 1 10 -5 0 -7
8 -9 21 -5 12 4 19 3 16 -2 -3 -5 3 -9 13 -9 10 0 16 4 13 9 -3 5 4 4 14 -2
11 -6 23 -8 26 -4 4 3 14 0 24 -8 11 -9 14 -10 9 -1 -10 17 -1 15 18 -4 9 -9
16 -11 16 -4 0 6 5 8 10 5 6 -3 10 -1 10 6 0 7 7 4 16 -7 8 -10 13 -13 9 -6
-8 15 21 17 30 2 5 -8 12 -7 23 2 12 10 14 10 8 1 -4 -8 -1 -13 8 -14 29 -3
34 -4 41 -11 4 -4 17 -2 28 4 16 8 22 8 25 -1 5 -15 32 -14 32 1 0 6 7 3 16
-8 8 -10 12 -12 8 -4 -7 13 -5 13 9 1 9 -7 24 -11 32 -7 9 3 14 2 10 -3 -8
-14 17 -20 38 -9 9 5 17 5 16 1 -3 -20 2 -27 11 -13 6 10 10 11 10 3 0 -7 5
-13 11 -13 5 0 8 4 5 9 -4 5 5 4 18 -2 13 -7 22 -16 18 -22 -3 -5 1 -4 10 3
12 10 17 10 20 1 2 -7 11 -13 20 -15 11 -1 15 3 11 13 -5 12 -7 12 -14 1 -6
-9 -9 -9 -9 -1 0 16 17 26 25 13 4 -6 11 -7 17 -4 8 5 9 1 4 -11 -5 -14 -4
-16 7 -7 8 7 18 8 22 4 5 -4 5 2 2 13 -7 19 -7 19 8 1 11 -14 28 -19 70 -20
30 -1 55 2 55 5 0 4 7 10 16 13 14 5 15 4 5 -8 -9 -11 -9 -16 0 -22 8 -5 9 -3
4 6 -6 9 1 11 28 8 20 -2 39 1 41 7 2 5 5 1 5 -9 1 -19 1 -19 14 -1 11 14 16
15 22 5 6 -9 4 -11 -5 -5 -9 5 -11 4 -6 -4 6 -8 12 -9 20 -2 7 6 15 8 19 5 9
-9 71 -11 89 -2 9 5 19 4 23 -2 3 -5 13 -10 21 -10 8 0 12 4 9 10 -3 5 -1 10
4 10 6 0 11 -6 11 -14 0 -10 8 -13 26 -10 16 3 23 1 19 -6 -3 -5 -1 -10 4 -10
6 0 11 7 11 16 0 15 2 15 22 2 20 -14 26 -13 56 4 18 10 31 14 27 8 -3 -5 1
-10 10 -10 9 0 13 5 10 10 -3 6 -2 10 4 10 5 0 12 -6 14 -12 4 -10 6 -10 6 0
1 6 6 12 12 12 5 0 7 -5 3 -11 -4 -7 -1 -10 7 -7 8 3 13 10 12 16 -2 6 4 9 12
6 8 -4 12 -11 9 -18 -3 -6 0 -4 8 5 7 9 19 14 27 11 8 -2 11 -1 8 4 -6 11 64
11 81 0 6 -3 13 -2 17 4 4 6 11 8 16 5 5 -3 6 0 3 8 -3 8 1 14 10 14 8 0 13
-4 10 -9 -3 -4 0 -8 5 -8 6 0 11 10 12 23 0 12 3 16 6 10 2 -7 9 -13 14 -13 6
0 7 5 4 10 -3 6 -1 10 4 10 6 0 11 -5 11 -11 0 -5 5 -7 11 -4 6 5 4 12 -8 21
-17 12 -16 13 5 9 17 -3 22 0 19 9 -3 7 1 13 9 13 9 0 13 -7 9 -21 -4 -18 -4
-18 7 2 7 14 17 21 26 17 12 -4 13 -3 2 10 -11 13 -10 14 5 9 12 -5 16 -4 12
3 -4 6 5 14 21 18 15 4 21 10 15 12 -7 3 -13 9 -13 14 0 6 5 7 10 4 6 -3 10 1
10 10 0 10 -5 13 -12 9 -8 -4 -10 -3 -5 2 5 5 14 9 20 9 7 1 11 6 9 13 -1 7 6
12 15 12 10 0 14 4 8 8 -13 9 -18 35 -5 27 5 -3 10 1 10 9 0 9 4 16 9 16 11 0
9 19 -3 39 -7 11 -5 13 5 9 12 -5 14 1 11 24 -3 19 -1 28 5 25 7 -4 10 5 8 23
-2 19 3 34 14 41 14 9 13 10 -4 4 -11 -3 -16 -3 -12 1 4 4 1 14 -5 23 -10 13
-10 14 2 4 20 -18 26 -16 27 9 2 18 0 19 -7 8 -7 -11 -9 -10 -7 8 1 14 6 21
15 17 7 -2 11 -1 8 3 -2 4 -1 14 4 22 5 9 5 19 -2 27 -7 9 -6 14 5 19 9 3 14
11 11 18 -3 7 5 18 18 24 l23 12 -23 -6 c-21 -5 -22 -4 -11 14 7 12 17 18 21
16 4 -3 8 -1 8 5 0 5 -6 11 -12 14 -10 3 -10 8 1 18 8 8 11 9 8 3 -3 -6 0 -11
7 -11 10 0 9 9 -5 34 -11 19 -15 32 -10 29 5 -3 12 1 15 10 3 8 11 12 17 8 8
-4 9 -3 5 5 -4 6 -11 9 -16 6 -5 -3 -12 -1 -15 5 -4 6 -3 10 2 9 27 -5 35 1
23 16 -11 13 -10 14 2 10 9 -4 15 0 15 9 0 8 -4 13 -8 10 -4 -2 -11 1 -15 7
-4 8 -3 9 4 5 7 -4 12 -3 12 3 0 6 8 8 18 5 10 -4 13 -3 6 3 -6 4 -14 17 -17
27 -7 17 -6 17 9 5 16 -13 16 -12 6 8 -17 30 -15 41 3 17 13 -18 14 -17 9 11
-3 16 -11 33 -17 38 -8 6 -7 7 3 4 9 -3 25 2 35 10 17 13 17 15 3 10 -10 -4
-18 -2 -18 3 0 6 5 10 10 10 6 0 10 8 9 18 0 10 -3 12 -6 5 -2 -7 -9 -13 -15
-13 -6 0 -5 6 2 15 7 9 19 14 26 11 8 -3 13 -2 13 2 -4 27 1 34 17 21 10 -8 8
1 -7 27 l-23 39 24 -20 23 -20 -12 23 c-12 22 -5 28 23 23 5 -1 4 5 -3 13 -15
17 -7 51 9 41 6 -4 7 1 3 10 -5 13 -7 14 -14 3 -6 -9 -9 -9 -9 -1 0 6 5 15 10
18 15 9 13 68 -2 59 -8 -4 -10 -3 -5 2 5 5 13 9 18 9 5 0 8 5 7 10 -2 6 -7 9
-12 7 -5 -2 -6 8 -4 22 4 18 0 26 -15 30 -18 4 -19 7 -6 22 10 13 11 16 1 10
-9 -5 -15 -1 -19 13 -3 11 -9 19 -13 16 -4 -2 -5 7 -2 20 2 14 9 22 14 19 6
-4 2 5 -7 20 -11 17 -13 26 -6 26 7 0 9 5 6 10 -4 6 -11 8 -16 5 -5 -4 -9 -1
-9 5 0 7 7 9 16 6 12 -5 15 -2 10 9 -3 9 -2 13 4 10 6 -3 10 -1 10 5 0 6 5 8
10 5 6 -3 10 -1 10 4 0 6 -4 11 -8 11 -5 0 -9 7 -9 15 0 11 3 12 14 3 11 -9
13 -8 11 3 -2 8 -10 17 -18 21 -12 5 -11 7 4 7 15 1 17 7 14 32 -3 21 0 33 10
37 13 4 12 7 -4 13 -17 7 -17 8 -1 8 9 1 17 6 17 12 0 5 -3 8 -7 6 -5 -3 -8 8
-8 23 0 19 3 25 11 19 7 -5 11 -3 11 6 0 8 -6 15 -14 15 -7 0 -13 5 -13 11 0
5 5 7 12 3 6 -4 8 -3 4 4 -3 5 0 13 6 16 7 3 2 3 -11 0 -17 -5 -21 -3 -16 6 5
8 1 18 -10 27 -11 7 -13 13 -7 13 7 0 12 7 12 16 0 9 5 12 12 8 7 -5 8 -3 4 5
-5 7 -14 10 -21 7 -8 -3 -12 2 -10 12 2 9 4 17 5 17 1 0 3 8 5 18 2 12 -3 17
-18 17 -20 0 -20 0 -1 14 18 14 18 15 2 21 -10 4 -18 11 -18 17 0 5 5 6 10 3
18 -11 11 3 -15 31 -19 21 -22 30 -14 41 10 11 8 12 -7 6 -17 -6 -17 -5 -5 10
9 12 10 17 2 17 -7 0 -11 8 -10 18 3 31 -1 43 -11 37 -14 -9 -12 8 3 24 10 11
8 11 -11 1 l-23 -11 18 27 c10 16 13 25 8 22 -6 -3 -19 1 -30 9 -15 12 -16 14
-3 10 12 -4 15 -2 11 8 -3 8 -10 12 -17 8 -6 -3 -8 -3 -4 2 4 4 3 16 -2 26 -8
13 -6 19 8 22 13 4 12 5 -4 6 -12 0 -25 8 -28 17 -3 8 -2 13 3 10 5 -3 8 5 7
18 -1 18 -4 22 -13 14 -9 -7 -18 -6 -30 3 -11 10 -14 10 -9 2z m-39 -163 c-3
-5 -12 -10 -18 -10 -7 0 -6 4 3 10 19 12 23 12 15 0z m135 -4 c0 -2 -7 -7 -16
-10 -8 -3 -12 -2 -9 4 6 10 25 14 25 6z m35 -196 c3 -6 -1 -7 -9 -4 -18 7 -21
14 -7 14 6 0 13 -4 16 -10z m35 0 c0 -5 -2 -10 -4 -10 -3 0 -8 5 -11 10 -3 6
-1 10 4 10 6 0 11 -4 11 -10z m17 -46 c-3 -3 -12 -4 -19 -1 -8 3 -5 6 6 6 11
1 17 -2 13 -5z m-22 -523 c3 -5 2 -12 -3 -15 -5 -3 -9 1 -9 9 0 17 3 19 12 6z
m-106 -364 c-2 -1 -12 -9 -22 -16 -15 -12 -17 -12 -11 3 3 9 13 16 22 16 8 0
13 -1 11 -3z m115 -25 c3 -5 -1 -9 -9 -9 -8 0 -12 4 -9 9 3 4 7 8 9 8 2 0 6
-4 9 -8z m-207 -207 c0 -8 -4 -12 -9 -9 -5 3 -6 10 -3 15 9 13 12 11 12 -6z
m-90 -160 c0 -8 -4 -12 -9 -9 -5 3 -6 10 -3 15 9 13 12 11 12 -6z m138 -115
c-3 -5 -12 -10 -18 -10 -7 0 -6 4 3 10 19 12 23 12 15 0z m-180 -130 c-8 -9
-12 -20 -8 -25 5 -4 2 -5 -5 -1 -9 6 -10 11 -3 20 6 7 9 15 6 18 -3 2 2 5 10
5 13 0 13 -2 0 -17z m-11 -68 c2 -4 -5 -9 -17 -9 -17 -2 -19 0 -7 7 18 12 18
12 24 2z m57 -49 c13 -16 12 -17 -3 -4 -10 7 -18 15 -18 17 0 8 8 3 21 -13z
m73 -68 c-4 -8 -11 -12 -16 -9 -6 4 -5 10 3 15 19 12 19 11 13 -6z m-1169
-165 c3 -5 1 -10 -4 -10 -6 0 -11 5 -11 10 0 6 2 10 4 10 3 0 8 -4 11 -10z
m675 -34 c0 -2 -8 -10 -17 -17 -16 -13 -17 -12 -4 4 13 16 21 21 21 13z m213
-77 c-8 -8 -13 -7 -18 2 -5 8 -4 10 3 5 7 -4 12 -2 12 5 0 7 3 9 7 6 4 -4 2
-12 -4 -18z m-288 -28 c3 -5 1 -12 -5 -16 -5 -3 -10 1 -10 9 0 18 6 21 15 7z"/>
<path d="M9030 4389 c0 -5 5 -7 10 -4 6 3 10 8 10 11 0 2 -4 4 -10 4 -5 0 -10
-5 -10 -11z"/>
<path d="M8625 4370 c-3 -5 -1 -10 4 -10 6 0 11 5 11 10 0 6 -2 10 -4 10 -3 0
-8 -4 -11 -10z"/>
<path d="M1010 4316 c0 -2 7 -7 16 -10 8 -3 12 -2 9 4 -6 10 -25 14 -25 6z"/>
<path d="M550 4226 c0 -2 7 -7 16 -10 8 -3 12 -2 9 4 -6 10 -25 14 -25 6z"/>
<path d="M8505 4150 c3 -5 8 -10 11 -10 2 0 4 5 4 10 0 6 -5 10 -11 10 -5 0
-7 -4 -4 -10z"/>
<path d="M980 4106 c0 -2 8 -10 18 -17 15 -13 16 -12 3 4 -13 16 -21 21 -21
13z"/>
<path d="M4036 4022 c-3 -5 1 -9 9 -9 8 0 12 4 9 9 -3 4 -7 8 -9 8 -2 0 -6 -4
-9 -8z"/>
<path d="M944 3869 c-8 -14 14 -19 25 -6 8 10 7 14 -5 14 -8 0 -17 -4 -20 -8z"/>
<path d="M955 3830 c3 -5 8 -10 11 -10 2 0 4 5 4 10 0 6 -5 10 -11 10 -5 0 -7
-4 -4 -10z"/>
<path d="M949 3673 c-13 -16 -12 -17 4 -4 9 7 17 15 17 17 0 8 -8 3 -21 -13z"/>
<path d="M4027 3429 c7 -7 15 -10 18 -7 3 3 -2 9 -12 12 -14 6 -15 5 -6 -5z"/>
<path d="M4790 3049 c0 -4 6 -9 13 -12 8 -3 14 0 14 7 0 7 -6 13 -14 13 -7 0
-13 -4 -13 -8z"/>
<path d="M4063 3015 c0 -8 4 -12 9 -9 5 3 6 10 3 15 -9 13 -12 11 -12 -6z"/>
<path d="M4855 2870 c-3 -5 -1 -10 4 -10 6 0 11 5 11 10 0 6 -2 10 -4 10 -3 0
-8 -4 -11 -10z"/>
<path d="M8635 2751 c-3 -5 -2 -12 3 -15 5 -3 9 1 9 9 0 17 -3 19 -12 6z"/>
<path d="M873 2575 c0 -8 4 -12 9 -9 5 3 6 10 3 15 -9 13 -12 11 -12 -6z"/>
<path d="M373 2385 c0 -8 4 -12 9 -9 5 3 6 10 3 15 -9 13 -12 11 -12 -6z"/>
<path d="M5285 2091 c-3 -5 -2 -12 3 -15 5 -3 9 1 9 9 0 17 -3 19 -12 6z"/>
<path d="M4238 2003 c7 -3 16 -2 19 1 4 3 -2 6 -13 5 -11 0 -14 -3 -6 -6z"/>
<path d="M8190 2000 c0 -5 5 -10 11 -10 5 0 7 5 4 10 -3 6 -8 10 -11 10 -2 0
-4 -4 -4 -10z"/>
<path d="M1125 1891 c-6 -11 13 -26 22 -17 4 3 1 6 -6 6 -7 0 -9 5 -6 10 3 6
4 10 1 10 -3 0 -7 -4 -11 -9z"/>
<path d="M4299 1833 c-13 -16 -12 -17 4 -4 9 7 17 15 17 17 0 8 -8 3 -21 -13z"/>
<path d="M1187 1798 c9 -10 19 -15 22 -12 3 4 0 9 -7 11 -6 3 -10 8 -8 12 3 4
-1 8 -9 8 -13 0 -12 -4 2 -19z"/>
<path d="M4330 1746 c0 -2 7 -7 16 -10 8 -3 12 -2 9 4 -6 10 -25 14 -25 6z"/>
<path d="M1270 1720 c-12 -7 -10 -13 13 -34 15 -14 27 -21 27 -16 0 5 -5 12
-10 15 -6 4 -8 11 -5 16 4 5 -2 6 -12 2 -16 -6 -16 -5 -4 10 15 19 13 21 -9 7z"/>
<path d="M1380 1565 c7 -8 17 -15 22 -15 5 0 3 7 -6 15 -8 8 -18 15 -22 15 -3
0 -1 -7 6 -15z"/>
<path d="M4751 1014 c0 -11 3 -14 6 -6 3 7 2 16 -1 19 -3 4 -6 -2 -5 -13z"/>
<path d="M4796 973 c-3 -3 6 -15 20 -25 20 -16 22 -23 13 -34 -10 -12 -9 -13
5 -8 9 3 16 8 16 11 0 11 -48 61 -54 56z"/>
<path d="M5645 500 c-3 -5 -1 -10 4 -10 6 0 11 5 11 10 0 6 -2 10 -4 10 -3 0
-8 -4 -11 -10z"/>
</g>
</svg>
